<svg  width="128" height="76" viewBox="0 0 256 152" fill="none" xmlns="http://www.w3.org/2000/svg">
<g opacity="0.7">
<path d="M222.814 147.103C267.208 146.866 271.77 54.1194 200.883 63.1521C149.23 69.7323 153.408 64.6768 126.992 26.3308C99.4187 -13.6983 45.5352 -2.38532 18.6048 29.4558C-10.4221 63.7765 -5.08455 146.299 52.212 146.865C112.938 147.465 179.589 147.332 222.814 147.102V147.103Z" fill="url(#paint0_linear_748_2568)"/>
<path d="M222.814 147.782C230.097 147.726 237.027 145.08 242.476 140.245C247.906 135.429 251.599 128.867 253.729 121.984C256.003 114.634 256.554 106.765 255.451 99.1587C254.335 91.4548 251.399 83.9862 246.598 77.8282C241.411 71.1755 234.176 66.4624 226.121 64.0387C221.256 62.5758 216.16 61.9197 211.087 61.8564C204.438 61.7734 197.871 62.8955 191.28 63.624C185.377 64.277 179.441 64.8517 173.497 64.8984C169.371 64.9301 165.184 64.7144 161.177 63.6526C154.222 61.8096 149.2 57.0392 144.93 51.4528C137.926 42.286 132.396 32.0604 125.346 22.9312C117.433 12.6815 106.494 5.11483 93.9077 1.8903C81.9025 -1.18643 69.134 -0.346364 57.3399 3.24466C45.1868 6.94579 33.8919 13.517 24.6044 22.1771C20.5971 25.9129 16.9261 30.0379 13.9112 34.6198C11.2342 38.6889 9.04428 43.0657 7.24198 47.5873C3.39606 57.2458 1.33586 67.6192 0.812516 77.9866C0.287662 88.3871 1.3238 98.9717 4.34925 108.957C7.1726 118.277 11.8224 127.204 18.7586 134.126C25.823 141.177 35.0049 145.604 44.8701 146.994C47.805 147.408 50.74 147.53 53.7006 147.558C58.4469 147.604 63.1932 147.646 67.9395 147.682C77.402 147.756 86.8629 147.813 96.3254 147.857C114.887 147.943 133.448 147.978 152.01 147.975C168.734 147.972 185.46 147.938 202.185 147.875C209.062 147.849 215.938 147.818 222.815 147.782C223.688 147.777 223.69 146.42 222.815 146.424C207.892 146.504 192.968 146.558 178.046 146.589C160.466 146.625 142.887 146.629 125.305 146.595C106.687 146.558 88.0665 146.479 69.4477 146.337C64.8206 146.302 60.1919 146.263 55.5647 146.219C52.3372 146.189 49.1232 146.172 45.9153 145.776C40.8884 145.154 35.931 143.753 31.3792 141.523C22.8564 137.346 16.1087 130.401 11.4348 122.206C6.47581 113.511 3.74144 103.621 2.63291 93.7126C1.47763 83.3905 2.00701 72.8527 4.14413 62.6889C6.17266 53.0424 9.65208 43.5725 15.0876 35.309C21.5231 25.5253 30.9087 17.562 41.0227 11.7841C51.8033 5.6246 64.0499 1.76964 76.5001 1.38505C88.7919 1.00649 101.039 4.21142 111.201 11.2321C116.777 15.084 121.606 19.9827 125.563 25.474C129.281 30.6321 132.706 36.0103 136.223 41.3041C138.827 45.2224 141.431 49.1528 144.322 52.866C146.521 55.6908 148.921 58.3845 151.776 60.5653C157.679 65.0734 164.992 66.206 172.248 66.2588C177.912 66.2995 183.573 65.7988 189.2 65.2076C195.85 64.5108 202.492 63.3269 209.187 63.2183C218.622 63.0659 228.219 64.9693 236.231 70.1409C242.828 74.4001 247.888 80.6863 250.946 87.8955C253.929 94.9282 255.05 102.701 254.527 110.304C254.021 117.625 251.957 124.938 248.148 131.238C244.615 137.081 239.446 142.032 233.015 144.522C229.759 145.783 226.305 146.396 222.817 146.423C221.943 146.429 221.942 147.788 222.817 147.78L222.814 147.782Z" fill="#358CA0"/>
</g>
<path fill-rule="evenodd" clip-rule="evenodd" d="M43.8451 76.5975L34.728 98.9385L47.2868 135.612L61.3825 146.687L86.6614 145.869L75.3756 123.631L77.4373 90.2754L65.2254 73.1709L43.8451 76.5975Z" fill="#C23C27"/>
<path fill-rule="evenodd" clip-rule="evenodd" d="M56.0057 125.845L75.5097 146.396L86.5437 146.745L71.8765 123.11L66.818 84.6272L45.1074 89.7792L56.0057 125.845Z" fill="#E36337"/>
<path fill-rule="evenodd" clip-rule="evenodd" d="M43.8029 76.4633L34.6436 99.2613L35.0131 100.011L45.2387 90.203L67.0276 85.879L77.9908 91.8078L64.9991 73.0337L43.8029 76.4633Z" fill="#401714"/>
<path fill-rule="evenodd" clip-rule="evenodd" d="M56.2542 125.932L48.5669 136.895L58.5482 144.575L65.789 136.113L79.9857 132.796L75.7854 124.926L71.9078 123L56.2542 125.932Z" fill="#401714"/>
<path fill-rule="evenodd" clip-rule="evenodd" d="M73.7995 144.578L72.8252 146.453L87.129 146.804L83.8788 140.287L73.7995 144.578Z" fill="#401714"/>
<path fill-rule="evenodd" clip-rule="evenodd" d="M48.8294 102.222L39.4619 112.552L43.3938 124.553L52.5214 114.402L70.3635 111.875L75.6105 114.828L76.0931 102.783L68.6275 98.3838L48.8294 102.222Z" fill="#401714"/>
<path fill-rule="evenodd" clip-rule="evenodd" d="M85.0462 144.448L74.8372 124.949L76.4449 90.9312L64.5603 74.16L44.3353 77.3514L35.6375 99.3952L48.3336 135.411L62.8998 146.433L59.9422 146.822L46.9883 137.669L33.5879 98.0077L43.1348 75.8522L65.9856 72.4075L78.6288 90.8196L76.5234 124.569L86.6811 144.371L85.0462 144.448Z" fill="#2E100D"/>
<path d="M96.3533 90.874L83.0419 97.2959L73.9927 136.411L79.5383 143.476L166.177 143.417L167.316 132.997L169.243 132.645L168.454 125.115L155.318 125.727L146.824 96.4785L137.453 91.049L116.611 95.9521L96.3533 90.874Z" fill="#C23C27"/>
<path d="M102.775 93.6763L96.3334 103.056L95.1842 108.972L92.7334 126.02L90.3398 143.797L143.409 143.856L139.905 126.691L141.92 109.965L138.709 101.674L132.462 92.8L124.843 95.7772H108.117L102.775 93.6763Z" fill="#771213"/>
<path d="M146.386 125.961L152.574 117.029L155.987 125.786L169.037 125.202L169.096 132.441L166.998 132.909L167.057 137.637L166.009 143.125L143.402 143.943L140.606 125.495L146.386 125.961Z" fill="#771213"/>
<path d="M138.445 143.534C138.64 143.574 139.846 131.858 139.846 131.858L140.489 126.837L146.62 135.419L156.545 133.375L154.969 138.162L155.787 143.533H138.447L138.445 143.534Z" fill="#661216"/>
<path d="M140.95 105.733L142.465 109.748L140.882 126.572L143.958 143.578L141.91 143.631L139.395 126.635L140.965 109.948L139.57 106.253L138.211 100.566L140.95 105.733Z" fill="#310401"/>
<path d="M136.531 143.825C137.881 143.848 139.021 142.777 139.157 141.362L142.562 105.947C142.761 104.052 142.449 102.763 139.439 102.719L113.296 102.133C110.305 102.105 109.629 103.256 109.394 105.588L106.302 141.112C106.194 142.356 107.166 143.432 108.415 143.448L136.53 143.825H136.531Z" fill="#706B6B"/>
<path d="M136.608 144.059C137.958 144.082 139.098 143.011 139.234 141.596L142.64 106.18C142.839 104.286 142.526 102.997 139.516 102.953L113.373 102.366C110.382 102.339 109.706 103.49 109.471 105.821L106.379 141.346C106.271 142.59 107.244 143.665 108.492 143.682L136.607 144.059H136.608Z" fill="url(#paint1_linear_748_2568)"/>
<path d="M120.303 115.351C121.061 115.379 121.864 114.402 121.894 113.79L122.361 107.893C122.416 107.381 121.85 105.936 120.683 105.967L115.312 105.85C114.115 105.778 113.522 106.826 113.459 107.457L112.962 113.485C112.831 114.449 113.751 115.149 114.379 115.236L120.304 115.352L120.303 115.351Z" fill="#514949"/>
<path d="M96.5849 101.908L94.0361 126L92.1191 125.923L94.4478 108.339L96.5849 101.908Z" fill="#310401"/>
<path d="M105.924 141.145C105.756 142.34 106.234 143.568 107.439 144.006C108.162 144.269 109.048 144.183 109.807 144.209C110.487 144.233 110.486 143.177 109.807 143.153C109.297 143.135 108.783 143.135 108.273 143.1C107.382 143.038 106.816 142.314 106.94 141.427C107.034 140.762 106.016 140.476 105.922 141.147L105.924 141.145Z" fill="#2D2828"/>
<path d="M135.278 144.334C136.317 144.35 137.358 144.447 138.266 143.832C139.122 143.251 139.576 142.331 139.689 141.322C139.765 140.648 139.819 139.971 139.884 139.295C140.223 135.761 140.564 132.227 140.904 128.695C141.609 121.353 142.315 114.01 143.023 106.668C143.115 105.713 143.291 104.689 142.891 103.784C142.237 102.299 140.457 102.216 139.045 102.184L129.423 101.968C125.235 101.875 121.048 101.78 116.86 101.686C114.533 101.634 110.537 100.907 109.353 103.468C108.853 104.547 108.844 105.846 108.731 107.021C108.557 108.814 108.385 110.607 108.212 112.402C107.845 116.212 107.477 120.02 107.111 123.83C107.088 124.064 107.066 124.299 107.043 124.533C106.978 125.208 108.034 125.204 108.099 124.533C108.696 118.331 109.295 112.128 109.892 105.926C109.94 105.418 109.991 104.909 110.13 104.416C110.45 103.268 111.279 102.805 112.429 102.695C113.26 102.615 114.119 102.683 114.952 102.701C118.582 102.783 122.214 102.864 125.844 102.946C129.645 103.032 133.447 103.116 137.248 103.202C137.976 103.219 138.703 103.231 139.432 103.25C140.368 103.276 141.694 103.341 142.003 104.422C142.154 104.947 142.078 105.517 142.027 106.051C141.431 112.321 140.821 118.589 140.219 124.858C139.845 128.754 139.469 132.65 139.095 136.545C138.978 137.773 138.858 139.001 138.741 140.228C138.659 141.07 138.671 141.952 138.065 142.625C137.322 143.45 136.275 143.296 135.281 143.281C134.601 143.27 134.601 144.326 135.281 144.337L135.278 144.334Z" fill="#3A3434"/>
<path opacity="0.6" d="M119.611 114.453C118.86 114.44 118.11 114.425 117.359 114.411L115.869 114.384C115.614 114.379 115.344 114.396 115.091 114.36C114.382 114.257 113.896 113.621 113.943 112.916C113.96 112.669 113.982 112.42 114.003 112.173C114.086 111.143 114.169 110.114 114.251 109.084L114.331 108.083C114.373 107.561 114.647 107.101 115.142 106.887C115.459 106.749 115.797 106.778 116.132 106.786L117.549 106.813C118.379 106.828 119.207 106.838 120.036 106.86C120.674 106.875 121.237 107.307 121.36 107.945C121.412 108.212 121.362 108.508 121.341 108.778C121.261 109.779 121.18 110.781 121.1 111.782L121.003 112.99C120.973 113.375 120.908 113.735 120.628 114.031C120.347 114.327 119.997 114.456 119.612 114.456C119.418 114.456 119.418 114.758 119.612 114.758C120.394 114.758 121.113 114.22 121.259 113.437C121.308 113.18 121.312 112.912 121.333 112.654C121.419 111.582 121.505 110.509 121.591 109.437L121.676 108.392C121.719 107.838 121.532 107.3 121.095 106.941C120.732 106.642 120.309 106.564 119.857 106.556L118.518 106.531C117.599 106.514 116.679 106.493 115.761 106.479C115.163 106.47 114.601 106.74 114.278 107.255C114.07 107.586 114.041 107.947 114.011 108.322C113.928 109.348 113.847 110.372 113.764 111.398L113.661 112.684C113.628 113.097 113.642 113.494 113.859 113.865C114.166 114.39 114.721 114.667 115.319 114.681C115.675 114.689 116.032 114.695 116.388 114.701C117.394 114.719 118.4 114.738 119.404 114.756C119.474 114.756 119.543 114.759 119.612 114.761C119.807 114.764 119.807 114.462 119.612 114.459L119.611 114.453Z" fill="#383131"/>
<path d="M119.991 115.213C119.099 115.197 118.207 115.18 117.315 115.164L115.508 115.131C115.207 115.124 114.894 115.14 114.593 115.106C113.715 115.01 113.079 114.23 113.139 113.357C113.159 113.069 113.186 112.781 113.208 112.493C113.308 111.263 113.407 110.034 113.507 108.805C113.54 108.402 113.572 108.001 113.605 107.599C113.658 106.956 114.008 106.39 114.62 106.14C115 105.985 115.397 106.018 115.795 106.026L117.481 106.057C118.486 106.075 119.491 106.09 120.496 106.113C121.264 106.13 121.95 106.635 122.117 107.399C122.188 107.724 122.128 108.08 122.102 108.408C122.006 109.603 121.909 110.796 121.811 111.99C121.772 112.475 121.733 112.959 121.693 113.443C121.654 113.927 121.57 114.357 121.217 114.714C120.893 115.046 120.449 115.215 119.989 115.212C119.795 115.212 119.795 115.512 119.989 115.514C120.93 115.518 121.798 114.858 121.95 113.909C121.998 113.61 122.006 113.304 122.03 113.004C122.132 111.736 122.235 110.467 122.339 109.2C122.372 108.786 122.407 108.371 122.44 107.956C122.494 107.292 122.255 106.656 121.724 106.238C121.286 105.893 120.783 105.817 120.247 105.808L118.636 105.778C117.543 105.759 116.449 105.736 115.356 105.718C114.626 105.706 113.929 106.045 113.558 106.689C113.34 107.069 113.312 107.479 113.279 107.902C113.18 109.128 113.08 110.353 112.981 111.579L112.858 113.082C112.818 113.586 112.84 114.067 113.124 114.512C113.504 115.108 114.146 115.407 114.839 115.42L116.154 115.444C117.353 115.467 118.55 115.488 119.749 115.511C119.829 115.511 119.909 115.514 119.989 115.515C120.184 115.518 120.184 115.216 119.989 115.213H119.991Z" fill="#383131"/>
<path opacity="0.6" d="M117.647 108.885C117.595 109.424 117.194 109.885 116.681 110.043C116.169 110.202 115.62 110.06 115.301 109.639C114.983 109.218 115.012 108.611 115.323 108.184C115.633 107.757 116.193 107.526 116.713 107.636C117.304 107.762 117.687 108.285 117.648 108.884C117.635 109.077 117.936 109.077 117.95 108.884C117.994 108.238 117.616 107.647 117.015 107.412C116.413 107.176 115.657 107.366 115.209 107.851C114.761 108.335 114.63 109.053 114.944 109.636C115.258 110.22 115.932 110.488 116.57 110.378C117.309 110.252 117.879 109.624 117.95 108.884C117.968 108.691 117.666 108.692 117.648 108.884L117.647 108.885Z" fill="#383131"/>
<path opacity="0.6" d="M117.371 112.25C117.32 112.788 116.919 113.25 116.406 113.408C115.893 113.566 115.344 113.425 115.026 113.004C114.708 112.583 114.736 111.975 115.047 111.548C115.358 111.122 115.917 110.891 116.438 111.001C117.029 111.126 117.412 111.649 117.373 112.248C117.359 112.441 117.661 112.441 117.674 112.248C117.718 111.603 117.341 111.011 116.739 110.776C116.138 110.541 115.382 110.731 114.934 111.215C114.486 111.699 114.355 112.417 114.669 113.001C114.982 113.584 115.656 113.853 116.294 113.743C117.033 113.616 117.604 112.989 117.674 112.248C117.693 112.055 117.391 112.057 117.373 112.248L117.371 112.25Z" fill="#383131"/>
<path d="M116.831 109.537C117.237 109.288 117.377 108.78 117.145 108.401C116.913 108.023 116.397 107.918 115.991 108.166C115.586 108.415 115.445 108.923 115.677 109.302C115.909 109.68 116.426 109.785 116.831 109.537Z" fill="#262121"/>
<path d="M116.497 112.866C116.903 112.617 117.043 112.109 116.811 111.73C116.579 111.352 116.063 111.246 115.657 111.495C115.252 111.744 115.111 112.252 115.343 112.63C115.575 113.009 116.092 113.114 116.497 112.866Z" fill="#262121"/>
<path d="M119.946 111.602C120.435 111.302 120.604 110.689 120.324 110.233C120.044 109.776 119.421 109.649 118.932 109.948C118.444 110.248 118.275 110.861 118.554 111.317C118.834 111.774 119.457 111.901 119.946 111.602Z" fill="#B2A8A8"/>
<path opacity="0.6" d="M120 108.328C119.995 108.351 119.991 108.372 119.985 108.395C119.982 108.405 119.977 108.416 119.974 108.426C119.965 108.449 119.991 108.398 119.971 108.432C119.961 108.452 119.949 108.47 119.938 108.49C119.925 108.514 119.934 108.497 119.938 108.49C119.929 108.502 119.919 108.514 119.908 108.524C119.894 108.54 119.879 108.552 119.864 108.565C119.833 108.592 119.888 108.552 119.852 108.574C119.845 108.579 119.837 108.585 119.83 108.589C119.81 108.601 119.79 108.61 119.771 108.621C119.796 108.609 119.771 108.621 119.763 108.624C119.748 108.629 119.733 108.635 119.718 108.638C119.709 108.639 119.7 108.642 119.691 108.644C119.649 108.654 119.719 108.644 119.677 108.647C119.656 108.647 119.637 108.65 119.615 108.648C119.603 108.648 119.593 108.648 119.581 108.647C119.585 108.647 119.608 108.648 119.581 108.647C119.554 108.641 119.529 108.633 119.502 108.625C119.463 108.613 119.517 108.635 119.496 108.624C119.487 108.619 119.477 108.615 119.468 108.609C119.46 108.604 119.453 108.6 119.445 108.595C119.44 108.592 119.407 108.568 119.434 108.589C119.419 108.577 119.406 108.565 119.392 108.552C119.385 108.544 119.379 108.537 119.371 108.529C119.348 108.505 119.38 108.547 119.365 108.52C119.354 108.502 119.344 108.484 119.335 108.466C119.318 108.434 119.335 108.482 119.333 108.461C119.333 108.452 119.326 108.44 119.324 108.431C119.321 108.423 119.32 108.414 119.318 108.407C119.318 108.401 119.312 108.36 119.315 108.396C119.314 108.372 119.312 108.348 119.315 108.324C119.315 108.316 119.32 108.286 119.315 108.316C119.315 108.307 119.318 108.298 119.32 108.289C119.324 108.267 119.332 108.245 119.339 108.224C119.353 108.185 119.324 108.247 119.345 108.211C119.35 108.203 119.353 108.196 119.357 108.187C119.364 108.178 119.368 108.167 119.376 108.158C119.379 108.152 119.383 108.147 119.386 108.141C119.376 108.153 119.376 108.153 119.386 108.141C119.4 108.126 119.413 108.111 119.427 108.098C119.434 108.09 119.443 108.083 119.451 108.075C119.483 108.048 119.436 108.084 119.457 108.07C119.474 108.06 119.49 108.048 119.508 108.039C119.52 108.033 119.532 108.027 119.544 108.021C119.52 108.031 119.549 108.019 119.558 108.016C119.579 108.009 119.602 108.004 119.623 107.998C119.63 107.997 119.652 107.992 119.623 107.998C119.637 107.997 119.65 107.995 119.664 107.995C119.685 107.995 119.706 107.995 119.725 107.995C119.753 107.997 119.691 107.988 119.733 107.995C119.747 107.998 119.76 108.001 119.772 108.004C119.784 108.007 119.798 108.012 119.81 108.016C119.84 108.025 119.792 108.006 119.822 108.021C119.842 108.031 119.863 108.048 119.882 108.057C119.902 108.066 119.86 108.036 119.887 108.06C119.896 108.069 119.905 108.077 119.914 108.086C119.923 108.095 119.931 108.104 119.94 108.113C119.961 108.135 119.929 108.093 119.946 108.122C119.956 108.141 119.967 108.162 119.979 108.182C119.991 108.202 119.97 108.15 119.979 108.187C119.982 108.199 119.986 108.211 119.989 108.223C119.992 108.235 119.995 108.247 119.997 108.261C119.992 108.233 119.997 108.261 119.997 108.273C119.997 108.282 119.997 108.291 119.997 108.298C119.997 108.304 119.991 108.36 119.997 108.325C119.986 108.404 120.017 108.491 120.103 108.511C120.173 108.527 120.276 108.49 120.288 108.405C120.308 108.268 120.294 108.138 120.231 108.013C120.176 107.906 120.08 107.813 119.973 107.761C119.722 107.639 119.43 107.687 119.223 107.87C119.017 108.052 118.953 108.345 119.06 108.591C119.163 108.825 119.422 108.968 119.674 108.944C119.968 108.917 120.237 108.704 120.288 108.404C120.302 108.327 120.267 108.238 120.182 108.218C120.109 108.202 120.012 108.241 119.997 108.324L120 108.328Z" fill="#383131"/>
<path d="M119.412 113.475C119.6 113.377 119.679 113.155 119.587 112.979C119.496 112.803 119.269 112.74 119.08 112.838C118.892 112.936 118.813 113.158 118.905 113.334C118.996 113.51 119.223 113.573 119.412 113.475Z" fill="#262121"/>
<path d="M85.1424 127.655L99.9726 125.202L104.117 120.737L107.411 120.725L107.026 124.667L116.699 121.436L118.275 125.202L110.919 129.318L120.202 127.567L120.756 131.421L113.108 134.018L118.801 135.04L118.071 139.214L110.568 139.476L102.775 142.367L100.148 140.265L86.1348 143.476L79.8306 135.478L85.1424 127.655Z" fill="#771213"/>
<path d="M154.871 138.066L156.311 133.161L157.323 133.434L158.88 128.802L157.752 128.218L162.109 111.565C162.319 110.787 163.097 110.306 163.887 110.465L164.15 110.518C165.015 110.695 165.551 111.566 165.315 112.419L161.293 128.529L159.269 128.997L159.58 133.939L158.841 138.765L155.766 142.774L154.87 138.064L154.871 138.066Z" fill="#E2CFCF"/>
<path d="M154.948 138.144L156.388 133.239L157.4 133.512L158.957 128.88L157.829 128.297L162.186 111.643C162.396 110.865 163.174 110.384 163.964 110.544L164.226 110.597C165.092 110.773 165.628 111.645 165.392 112.497L161.37 128.608L159.346 129.075L159.657 134.017L158.918 138.844L155.842 142.852L154.947 138.142L154.948 138.144Z" fill="url(#paint2_radial_748_2568)"/>
<path fill-rule="evenodd" clip-rule="evenodd" d="M154.254 125.606L146.09 97.0514L136.66 92.1392L137.43 90.6597L147.612 95.602L156.661 125.552L154.254 125.606Z" fill="#2E100D"/>
<path d="M158.418 124.935L152.413 125.34L152.493 126.522L158.498 126.116L158.418 124.935Z" fill="#2E100D"/>
<path d="M167.203 136.823L159.172 138.115L159.339 139.153L167.37 137.861L167.203 136.823Z" fill="#310401"/>
<path d="M158.334 128.131C159.67 123.208 161.006 118.286 162.344 113.363C162.5 112.79 162.587 111.808 163.017 111.348C163.785 110.526 165.136 111.357 164.959 112.372C164.923 112.583 164.845 112.796 164.789 113.004C164.056 115.716 163.323 118.429 162.592 121.141C161.945 123.537 161.298 125.934 160.649 128.33C160.471 128.986 161.489 129.267 161.667 128.611C163.053 123.481 164.438 118.352 165.824 113.224C166.145 112.033 166.101 110.701 164.732 110.178C163.287 109.626 162.056 110.404 161.672 111.819C160.928 114.559 160.184 117.298 159.439 120.038C158.694 122.779 158.025 125.246 157.319 127.851C157.141 128.507 158.159 128.787 158.337 128.131H158.334Z" fill="#474646"/>
<path d="M155.666 133.274C155.458 134.07 155.25 134.867 155.043 135.665C154.836 136.462 154.468 137.318 154.409 138.124C154.352 138.918 154.643 139.841 154.759 140.622C154.888 141.483 155.016 142.346 155.145 143.207C155.219 143.703 155.88 143.658 156.111 143.334C157.147 141.874 158.182 140.415 159.218 138.955C159.611 138.4 158.696 137.873 158.307 138.423C157.271 139.883 156.236 141.341 155.2 142.801L156.165 142.928C156.044 142.117 155.922 141.304 155.802 140.492C155.717 139.925 155.633 139.357 155.548 138.79C155.523 138.613 155.504 138.432 155.468 138.257C155.399 137.915 155.545 138.221 155.44 138.331C155.571 138.195 155.601 137.714 155.648 137.535L156.062 135.947C156.271 135.15 156.479 134.354 156.685 133.556C156.857 132.899 155.839 132.618 155.667 133.276L155.666 133.274Z" fill="#474646"/>
<path d="M76.172 130.203L80.6484 109.381L84.9106 127.596L79.9471 135.574L86.0191 143.32L80.6484 143.203L74.6548 136.664L76.172 130.203Z" fill="#AF372B"/>
<path d="M84.3838 97.9383L95.7104 90.99L103.184 94.026L84.3838 97.9383Z" fill="#AF372B"/>
<path d="M133.308 93.6765L136.869 92.1577L145.219 97.0036L133.308 93.6765Z" fill="#AF372B"/>
<path d="M85.2012 116.299L84.9102 99.3396L94.4556 103.017L91.9444 110.374L85.2012 116.299Z" fill="#E36337"/>
<path d="M80.0645 135.342L84.9299 127.829C84.9299 127.829 95.3214 126.544 99.4086 125.727C99.6816 127.946 101.277 135.263 101.277 135.263L115.445 139.038L110.512 139.651L102.748 142.366L100.442 140.263L86.5467 143.562L80.066 135.339L80.0645 135.342Z" fill="#661216"/>
<path d="M117.175 120.92L119.413 125.163L115.643 127.513L120.87 126.656L121.748 131.917L115.946 133.799L119.774 134.506L118.965 140.07L110.917 140.207L102.346 143.611L99.6603 141.121L89.4437 143.825L86.9175 143.082L100.491 139.636L102.88 141.507L110.628 138.746L117.567 138.417L118.06 135.689L110.212 134.236L119.894 130.861L119.591 128.36L108.764 130.131L117.335 124.692L116.33 122.512L115.834 122.67L104.82 125.406L117.175 120.92Z" fill="#310401"/>
<path d="M92.1494 125.631L99.0479 124.483L103.707 120.037L107.447 120.313L107.344 121.403L104.34 121.506L100.01 126.116L81.4849 128.529L92.1494 125.631Z" fill="#310401"/>
<path fill-rule="evenodd" clip-rule="evenodd" d="M79.422 144.118L72.1826 137.288L82.0493 96.7126L95.786 89.9045L96.5687 91.3765L83.4202 98.3776L74.7843 136.528L81.173 143.476L79.422 144.118Z" fill="#2E100D"/>
<g opacity="0.5">
<path d="M123.18 137.872C123.436 137.739 123.543 137.438 123.419 137.199C123.294 136.961 122.986 136.875 122.731 137.008C122.475 137.141 122.368 137.442 122.493 137.681C122.617 137.92 122.925 138.005 123.18 137.872Z" fill="#B2A4A4"/>
</g>
<g opacity="0.5">
<path d="M124.788 137.876C125.044 137.743 125.151 137.44 125.026 137.201C124.902 136.962 124.593 136.876 124.337 137.009C124.08 137.143 123.973 137.445 124.098 137.684C124.222 137.924 124.531 138.01 124.788 137.876Z" fill="#B2A4A4"/>
</g>
<g opacity="0.5">
<path d="M126.365 137.874C126.621 137.741 126.728 137.439 126.604 137.199C126.479 136.96 126.17 136.874 125.914 137.007C125.658 137.141 125.551 137.443 125.675 137.683C125.8 137.922 126.109 138.008 126.365 137.874Z" fill="#B2A4A4"/>
</g>
<g opacity="0.5">
<path d="M121.775 140.297C121.708 140.296 121.638 140.309 121.572 140.336C121.506 140.364 121.442 140.404 121.388 140.456C121.273 140.561 121.201 140.7 121.169 140.869C121.138 141.038 121.163 141.169 121.243 141.267C121.322 141.365 121.441 141.416 121.595 141.416C121.688 141.419 121.785 141.397 121.877 141.355C121.959 141.314 122.02 141.272 122.056 141.229L121.976 140.997L121.959 140.996C121.92 141.044 121.874 141.085 121.819 141.112C121.762 141.143 121.7 141.161 121.64 141.161C121.578 141.163 121.522 141.139 121.484 141.097C121.466 141.076 121.453 141.051 121.447 141.024C121.441 140.997 121.439 140.967 121.447 140.937H122.163L122.18 140.857C122.21 140.692 122.187 140.555 122.11 140.451C122.074 140.401 122.024 140.361 121.969 140.333C121.91 140.308 121.845 140.294 121.777 140.296M121.919 140.741H121.486C121.506 140.692 121.539 140.647 121.579 140.611C121.602 140.59 121.628 140.575 121.655 140.564C121.682 140.554 121.711 140.549 121.738 140.551C121.766 140.551 121.794 140.555 121.818 140.566C121.842 140.576 121.861 140.593 121.878 140.614C121.907 140.647 121.92 140.692 121.92 140.742" fill="#B2A4A4"/>
<path d="M123.122 140.432C123.099 140.39 123.064 140.356 123.022 140.335C122.977 140.311 122.924 140.299 122.868 140.299C122.802 140.298 122.733 140.311 122.668 140.338C122.601 140.365 122.541 140.408 122.488 140.46C122.381 140.568 122.31 140.705 122.282 140.865C122.253 141.025 122.271 141.16 122.336 141.263C122.402 141.365 122.509 141.418 122.659 141.418C122.725 141.42 122.795 141.405 122.859 141.374C122.917 141.347 122.966 141.307 123.006 141.255H123.009V141.394V141.397H123.22L123.482 139.975H123.211L123.126 140.432H123.122ZM123.024 140.64C123.06 140.703 123.071 140.783 123.052 140.863C123.04 140.942 123.001 141.019 122.941 141.08C122.914 141.108 122.88 141.129 122.846 141.144C122.811 141.157 122.775 141.165 122.739 141.165C122.704 141.166 122.669 141.159 122.641 141.144C122.612 141.129 122.589 141.106 122.573 141.079C122.54 141.017 122.532 140.942 122.549 140.865C122.562 140.788 122.598 140.712 122.654 140.649C122.678 140.619 122.71 140.593 122.745 140.577C122.779 140.56 122.816 140.551 122.852 140.552C122.888 140.551 122.923 140.559 122.953 140.574C122.983 140.589 123.007 140.611 123.024 140.64Z" fill="#B2A4A4"/>
<path d="M124.134 140.298C124.063 140.295 123.992 140.311 123.923 140.346C123.868 140.373 123.822 140.412 123.784 140.462H123.782L123.791 140.32H123.571L123.309 141.747H123.579L123.666 141.275H123.669C123.69 141.319 123.725 141.353 123.769 141.376C123.816 141.403 123.87 141.417 123.927 141.417C123.989 141.42 124.054 141.406 124.117 141.379C124.179 141.352 124.236 141.313 124.285 141.261C124.384 141.159 124.451 141.025 124.479 140.863C124.508 140.702 124.493 140.566 124.429 140.459C124.401 140.408 124.36 140.367 124.309 140.34C124.257 140.313 124.199 140.298 124.135 140.299M124.208 140.865C124.197 140.942 124.159 141.019 124.102 141.08C124.078 141.108 124.048 141.129 124.016 141.144C123.983 141.159 123.95 141.166 123.917 141.165C123.883 141.165 123.85 141.159 123.823 141.145C123.794 141.132 123.772 141.111 123.755 141.085C123.721 141.031 123.713 140.957 123.73 140.863C123.746 140.77 123.784 140.691 123.835 140.636C123.861 140.608 123.891 140.587 123.924 140.572C123.957 140.557 123.992 140.551 124.027 140.551C124.06 140.551 124.093 140.559 124.12 140.574C124.147 140.589 124.169 140.613 124.182 140.642C124.214 140.706 124.223 140.785 124.206 140.863L124.208 140.865Z" fill="#B2A4A4"/>
<path d="M125.41 140.406C125.343 140.334 125.244 140.298 125.117 140.298C125.03 140.298 124.941 140.317 124.855 140.356C124.772 140.394 124.698 140.451 124.638 140.521L124.728 140.744L124.745 140.746C124.784 140.685 124.837 140.635 124.896 140.598C124.95 140.563 125.01 140.543 125.069 140.543C125.113 140.54 125.153 140.551 125.187 140.574C125.197 140.583 125.206 140.593 125.211 140.607C125.215 140.62 125.217 140.635 125.214 140.651C125.209 140.679 125.188 140.7 125.15 140.715C125.069 140.743 124.988 140.764 124.905 140.779C124.782 140.804 124.689 140.845 124.627 140.902C124.564 140.961 124.522 141.038 124.509 141.118C124.493 141.212 124.506 141.285 124.553 141.34C124.6 141.394 124.678 141.42 124.787 141.42C124.932 141.42 125.046 141.364 125.128 141.255H125.131V141.397H125.35L125.476 140.711C125.5 140.58 125.479 140.477 125.41 140.405M125.058 141.123C125.003 141.157 124.939 141.175 124.879 141.174C124.805 141.174 124.773 141.147 124.784 141.092C124.787 141.08 124.791 141.067 124.799 141.055C124.807 141.043 124.816 141.034 124.828 141.025C124.865 141 124.908 140.985 124.95 140.979C125.075 140.952 125.149 140.924 125.172 140.893L125.152 141.003C125.144 141.047 125.114 141.088 125.06 141.121L125.058 141.123Z" fill="#B2A4A4"/>
<path d="M126.255 140.298C126.191 140.298 126.128 140.311 126.066 140.341C126.007 140.368 125.954 140.411 125.912 140.462H125.911L125.92 140.32H125.7L125.502 141.394H125.772L125.871 140.851C125.882 140.774 125.918 140.697 125.974 140.634C126 140.607 126.03 140.584 126.063 140.571C126.096 140.556 126.131 140.549 126.166 140.551C126.283 140.551 126.33 140.62 126.304 140.758L126.187 141.394H126.457L126.589 140.672C126.6 140.622 126.6 140.572 126.591 140.527C126.582 140.48 126.562 140.438 126.534 140.403C126.478 140.332 126.383 140.298 126.253 140.298" fill="#B2A4A4"/>
<path d="M127.524 140.432C127.502 140.39 127.467 140.356 127.425 140.335C127.378 140.311 127.325 140.299 127.27 140.299C127.203 140.298 127.134 140.311 127.069 140.338C127.003 140.365 126.942 140.408 126.89 140.46C126.781 140.568 126.71 140.705 126.681 140.865C126.653 141.025 126.671 141.16 126.736 141.263C126.802 141.365 126.909 141.418 127.058 141.418C127.125 141.42 127.194 141.405 127.259 141.374C127.316 141.347 127.366 141.307 127.405 141.255H127.408V141.394V141.397H127.619L127.882 139.975H127.612L127.527 140.432H127.524ZM127.425 140.64C127.461 140.703 127.472 140.783 127.455 140.863C127.443 140.942 127.404 141.019 127.343 141.08C127.316 141.108 127.283 141.129 127.248 141.144C127.214 141.157 127.178 141.165 127.141 141.165C127.107 141.166 127.072 141.159 127.043 141.144C127.015 141.129 126.992 141.106 126.975 141.079C126.942 141.017 126.935 140.942 126.951 140.865C126.965 140.788 127.001 140.712 127.057 140.649C127.081 140.619 127.113 140.593 127.147 140.577C127.182 140.56 127.218 140.551 127.254 140.552C127.291 140.552 127.325 140.559 127.354 140.575C127.384 140.59 127.408 140.613 127.425 140.641" fill="#B2A4A4"/>
<path d="M128.69 140.406C128.622 140.334 128.524 140.298 128.397 140.298C128.31 140.298 128.221 140.317 128.135 140.356C128.052 140.394 127.978 140.451 127.918 140.521L128.008 140.744L128.025 140.746C128.064 140.685 128.117 140.635 128.176 140.598C128.23 140.563 128.29 140.543 128.349 140.543C128.393 140.54 128.434 140.551 128.468 140.574C128.479 140.583 128.488 140.593 128.493 140.607C128.497 140.62 128.499 140.635 128.496 140.651C128.491 140.679 128.47 140.7 128.432 140.715C128.351 140.743 128.269 140.764 128.186 140.779C128.063 140.804 127.971 140.845 127.909 140.902C127.845 140.961 127.803 141.038 127.791 141.118C127.775 141.212 127.788 141.285 127.835 141.34C127.882 141.394 127.96 141.42 128.069 141.42C128.213 141.42 128.328 141.364 128.41 141.255H128.411V141.397H128.63L128.756 140.711C128.781 140.58 128.758 140.477 128.69 140.405M128.34 141.123C128.284 141.157 128.221 141.175 128.161 141.174C128.087 141.174 128.055 141.147 128.066 141.092C128.069 141.08 128.073 141.067 128.081 141.055C128.088 141.043 128.097 141.034 128.109 141.025C128.147 141 128.189 140.985 128.232 140.979C128.357 140.952 128.431 140.924 128.453 140.893L128.434 141.003C128.428 141.047 128.394 141.088 128.342 141.121L128.34 141.123Z" fill="#B2A4A4"/>
<path d="M121.086 141.29L121.018 141.234L120.653 141.447L120.759 141.492L120.958 141.491L121.121 141.388L121.086 141.29Z" fill="#B2A4A4"/>
<path d="M120.801 140.854C120.867 140.827 120.928 140.789 120.983 140.74C121.066 140.669 121.121 140.571 121.145 140.443C121.172 140.295 121.145 140.179 121.065 140.097C120.983 140.016 120.867 139.971 120.741 139.974H120.124L119.863 141.39H120.163L120.256 140.881H120.44C120.454 140.943 120.487 141.084 120.507 141.157L120.836 140.97C120.822 140.933 120.811 140.894 120.802 140.854H120.801ZM120.558 140.608H120.305L120.37 140.257H120.647C120.786 140.257 120.845 140.314 120.825 140.426C120.802 140.548 120.713 140.608 120.56 140.608H120.558Z" fill="#B2A4A4"/>
<path d="M120.869 141.053L120.531 141.245L120.591 141.379L120.95 141.174L120.869 141.053Z" fill="#B2A4A4"/>
</g>
<path d="M165.193 128.455L159.743 129.559L160.081 133.174L168.361 132.004L168.137 125.596L162.393 125.902L162.752 124.544L169.053 124.195L170.118 133.39L159.025 134.426L158.465 128.611L164.958 127.294L165.193 128.455Z" fill="#2E100D"/>
<path d="M152.286 131.644L156.805 133.055L157.933 129.288L151.597 126.627L146.823 136.805L149.538 142.952L165.747 142.913L166.403 137.746L166.563 133.128L167.863 133.202L168.074 137.925L167.038 144.138L147.86 144.077L145.116 136.815L151.093 124.668L159.785 128.758L157.591 134.571L152.166 132.209L152.286 131.644Z" fill="#2E100D"/>
<path d="M159.969 133.553L159.331 138.697L159.768 142.975L158.723 143.086L158.272 138.685L158.927 133.417L159.969 133.553Z" fill="#310401"/>
<path d="M79.1073 83.4709L107.801 95.3359L123.341 95.8729L153.412 84.495L150.539 78.9855L154.682 80.1453L148.973 71.4264L154.442 66.2533L153.272 63.2972L149.026 65.7903L153.715 58.6112L149.475 53.3778L150.486 39.626L144.702 37.3758L129.29 43.4206L106.336 42.8852L89.6254 35.6338L84.8671 37.7981L85.8308 51.9193L81.7451 56.1906L85.0827 63.801L81.2248 61.2234L80.1796 64.8884L84.9998 70.7281L78.2808 79.3761L83.9923 76.7157L79.1073 83.4709Z" fill="#C23C27"/>
<path d="M121.761 73.3343C122.997 74.1427 125.033 75.3704 125.033 75.3704L128.599 74.2166L129.944 70.6105C130.62 70.1852 131.377 69.7192 132.053 69.2938C130.288 68.1144 126.516 65.7646 126.516 65.7646L121.261 67.9153C121.261 67.9153 120.04 71.5199 119.378 73.5183L120.865 73.5515L121.761 73.3343Z" fill="#F5DECD"/>
<path d="M112.384 73.1184C111.104 73.856 109.003 74.972 109.003 74.972L105.498 73.6222L104.406 69.9407C103.754 69.4776 103.065 68.9302 102.415 68.4671C104.243 67.3873 107.474 65.6438 107.474 65.6438L113.265 67.6919C113.265 67.6919 114.411 71.4127 114.96 73.4442L113.215 73.4261L112.384 73.12V73.1184Z" fill="#F5DECD"/>
<path d="M144.981 37.6184L150.64 39.6816L149.55 53.5375L153.845 58.6412L149.026 65.7901L153.504 63.383L154.521 66.2561L148.973 71.4262L144.177 63.7766L139.618 57.124L137.644 55.1105L133.379 52.3173L133.235 47.5107L144.981 37.6184Z" fill="#F5DECD"/>
<path d="M89.7178 36.1072L85.1208 37.8582L85.7558 51.8392L81.7409 56.3472L85.2807 64.0149L81.2568 61.5807L80.0352 65.1219L84.8946 70.6073L90.9048 62.84L97.0869 53.4379L101.619 51.2374L102.467 45.9874L89.7178 36.1072Z" fill="#F5DECD"/>
<path d="M123.084 69.5049C122.61 70.9151 122.204 72.0115 121.75 73.3312C122.987 74.1396 125.034 75.3809 125.034 75.3809L128.59 74.2271C128.59 74.2271 129.291 72.4972 129.943 70.6104C128.666 69.609 127.031 68.2983 127.031 68.2983L123.084 69.5064V69.5049Z" fill="#2E100D"/>
<path d="M112.386 73.1217C111.106 73.8592 108.993 74.9843 108.993 74.9843L105.507 73.6345C105.507 73.6345 104.904 71.8684 104.356 69.9484C105.687 69.0194 107.392 67.8022 107.392 67.8022L111.317 69.2818L112.385 73.1217H112.386Z" fill="#2E100D"/>
<path d="M98.1486 51.0882C99.3959 50.1019 100.515 49.1804 102.168 47.8471L101.618 51.2421L97.1019 53.4848L90.9229 44.3752C90.9229 44.3752 96.2121 49.39 98.1486 51.0882Z" fill="#E6B48A"/>
<path d="M90.9887 53.2253C88.8892 54.5495 86.7476 55.5736 85.1021 56.5464C85.3223 58.768 85.9588 63.2519 86.1956 65.1115C84.0766 65.2608 82.8233 65.3302 80.8354 65.4584L85.1097 70.366L90.6342 63.1599L87.0206 58.6745L90.9902 53.2253H90.9887Z" fill="#E6B48A"/>
<path d="M133.279 48.868C134.573 50.1968 135.506 51.3189 136.665 52.3294C138.618 50.7654 144.468 45.4836 144.468 45.4836L137.669 55.1256L133.371 52.3188L133.279 48.8696V48.868Z" fill="#E6B48A"/>
<path d="M148.518 58.3652C148.092 60.7738 147.361 64.5126 146.854 66.5728C147.751 66.695 150.451 67.1882 151.7 67.3541L147.543 71.2422L142.707 63.8852L146.237 59.6849L142.759 54.6384C142.759 54.6384 146.93 57.3034 148.518 58.3652Z" fill="#E6B48A"/>
<path d="M107.69 43.3237C110.785 45.7851 114.209 49.1469 117.304 51.6068C121.291 48.978 124.774 46.5724 128.648 43.9647L107.69 43.3237Z" fill="#E36337"/>
<path d="M144.98 37.8433C141.037 41.1523 137.131 44.2803 133.235 47.5093L128.702 43.9726L144.98 37.8433Z" fill="#771213"/>
<path d="M89.8882 36.2715C94.3706 39.8595 98.1275 42.7477 102.455 46.1185L107.282 43.3525L89.8882 36.273V36.2715Z" fill="#771213"/>
<path d="M144.094 63.8987C145.277 62.5232 146.542 61.0241 147.724 59.6486C146.614 58.0695 144.194 54.6534 144.194 54.6534C144.194 54.6534 144.333 48.1289 144.483 45.4187C142.218 48.7367 137.666 55.1089 137.666 55.1089L144.094 63.9002V63.8987Z" fill="#2E100D"/>
<path d="M137.644 55.1108C137.644 55.1108 138.998 56.5224 139.618 57.1242C140.452 56.3384 141.284 55.5512 142.118 54.7654C141.859 56.263 141.601 57.7622 141.342 59.2598C142.417 59.3352 143.492 59.4121 144.568 59.4876C143.888 60.1391 143.164 60.7741 142.483 61.4271L154.686 80.1801L150.682 78.9479L153.513 84.6534L145.898 87.2339L148.667 83.3956L137.644 55.1093V55.1108Z" fill="#AF372B"/>
<path d="M90.7639 63.4449C89.7323 62.0076 88.016 60.1661 86.9844 58.7288C88.108 57.2115 90.9841 53.2239 90.9841 53.2239C90.9841 53.2239 90.7881 47.1217 90.8318 44.146C92.8498 47.2559 94.9733 50.212 97.1074 53.4818L90.7654 63.4449" fill="#2E100D"/>
<path d="M97.108 53.4772C97.108 53.4772 95.8397 55.198 95.1021 55.9612C94.5019 55.0442 93.9348 54.3233 93.2998 53.2102C93.3677 55.0125 93.3209 56.4031 93.4823 57.9128C92.3436 58.038 91.4387 58.1692 90.3 58.2944C90.9003 58.9821 92.0661 59.786 92.6664 60.4737L78.5557 79.2704L84.2733 76.6869L79.1167 83.6367L90.2382 88.6062L85.8704 82.3517L97.1065 53.4756L97.108 53.4772Z" fill="#AF372B"/>
<path d="M100.326 92.0933C98.076 88.736 93.1548 81.382 93.1548 81.382C93.1548 81.382 97.4366 72.0372 99.2675 68.0586C100.8 71.1549 103.96 77.6085 103.96 77.6085C103.96 77.6085 102.205 81.1196 101.089 83.2733C103.168 85.7498 108.267 91.7208 108.267 91.7208L116.782 94.3073L124.577 91.8625C124.577 91.8625 129.605 86.5733 131.763 84.0229C131.116 82.6896 129.438 78.5029 129.438 78.5029C129.438 78.5029 133.905 72.3087 136.218 69.321C137.887 75.0054 140.117 83.0275 140.117 83.0275C140.117 83.0275 135.78 88.727 133.371 91.4779L123.559 95.6164L108.066 95.1851L100.326 92.0918V92.0933Z" fill="#771213"/>
<path d="M142.559 88.1872C143.188 86.1949 143.947 83.3247 144.642 80.7804C143.319 79.0867 142.71 78.4427 141.641 77.1984C143.12 77.7504 143.885 77.9661 145.541 78.5091C142.285 75.2468 139.523 72.6904 136.267 69.4297L140.117 82.9794L133.371 91.4298L142.559 88.1887V88.1872Z" fill="#F5DECD"/>
<path d="M133.484 91.256L142.773 87.8731L143.949 83.3184L139.048 87.7449L136.267 87.8083L133.484 91.256Z" fill="#E6B48A"/>
<path d="M129.517 78.4213C127.49 78.0835 124.329 77.2902 124.329 77.2902C124.329 77.2902 122.393 75.0264 120.868 73.5483C118.417 73.4533 113.188 73.4036 113.188 73.4036L109.146 77.0489C109.146 77.0489 105.305 77.4516 103.973 77.5888L101.091 83.2717L108.268 91.7192L116.784 94.3057L124.578 91.8609L131.845 84.0303L129.52 78.4198L129.517 78.4213Z" fill="#F5DECD"/>
<path d="M110.307 69.9271C110.559 70.8893 110.792 71.6193 111.045 72.5122C110.188 73.0023 108.777 73.7519 108.777 73.7519L106.445 72.853C106.445 72.853 106.041 71.6781 105.676 70.4007C106.566 69.7823 107.706 68.9724 107.706 68.9724L110.307 69.9271Z" fill="#771213"/>
<path d="M109.587 70.5243C109.727 71.0899 109.808 71.4639 109.938 71.9828C109.222 72.387 108.639 72.7097 108.639 72.7097L107.128 72.126C107.128 72.126 106.896 71.3237 106.726 70.6797C107.29 70.3298 107.967 69.8984 107.967 69.8984L109.587 70.5243Z" fill="#2E100D"/>
<path d="M123.095 72.838C123.907 73.3583 125.251 74.1592 125.251 74.1592L127.582 73.4172C127.582 73.4172 128.041 72.3041 128.469 71.0885C127.631 70.443 126.558 69.5984 126.558 69.5984L123.934 70.4083" fill="#771213"/>
<path d="M124.21 72.4006C124.8 72.7701 125.565 73.2014 125.565 73.2014L126.862 72.7671C126.862 72.7671 127.107 72.1155 127.393 71.2679C126.789 70.8924 126.014 70.4067 126.014 70.4067L124.776 70.8094C124.776 70.8094 124.408 71.832 124.21 72.3991V72.4006Z" fill="#2E100D"/>
<path d="M125.078 70.2195L124.061 70.5453L123.747 71.5331L124.418 72.242L125.516 71.9584L125.821 70.8635L125.078 70.2195Z" fill="#F5DECD"/>
<path d="M108.725 69.5243L107.737 69.188L106.84 69.8109L106.96 70.8304L108.021 71.2542L108.918 70.5469L108.725 69.5243Z" fill="#F5DECD"/>
<path d="M109.688 55.2131C109.323 57.8555 108.968 60.2219 108.632 62.8959C110.402 63.2971 112.657 63.8491 114.368 64.2895C114.627 61.6245 114.811 59.2611 115.033 56.575C113.161 56.1226 109.688 55.2131 109.688 55.2131Z" fill="#F5DECD"/>
<path d="M104.199 58.9821C104.252 60.3606 104.332 64.0497 104.332 64.0497L107.33 62.8899C107.33 62.8899 107.409 59.3486 107.436 57.3533C106.057 57.9807 104.199 58.9821 104.199 58.9821Z" fill="#F5DECD"/>
<path d="M125.216 55.6853C125.379 58.293 125.667 60.7755 125.842 63.4148C124.052 63.718 121.77 64.1433 120.037 64.4872C119.925 61.8116 119.874 59.4422 119.802 56.7486C121.762 56.4273 125.214 55.6853 125.214 55.6853H125.216Z" fill="#F5DECD"/>
<path d="M130.487 59.7528C130.358 61.1253 130.073 64.8053 130.073 64.8053L127.144 63.4811C127.144 63.4811 127.261 59.9414 127.347 57.9475C128.688 58.6503 130.487 59.7543 130.487 59.7543V59.7528Z" fill="#F5DECD"/>
<path d="M114.941 73.4579C115.217 71.9904 116.018 68.3315 116.018 68.3315C116.018 68.3315 117.74 68.3677 118.625 68.416C118.865 70.1278 119.11 71.8622 119.389 73.5378L114.941 73.4564V73.4579Z" fill="#E36337"/>
<path d="M120.823 76.1304C120.052 74.7263 119.382 73.5061 119.382 73.5061L114.95 73.4036C114.95 73.4036 114.226 74.5981 113.452 75.8363L117.188 77.2178L120.823 76.1319V76.1304Z" fill="#E6B48A"/>
<path d="M117.167 77.1045C118.356 76.7833 119.41 76.4847 120.838 76.0971C121.031 76.6083 121.171 76.9778 121.336 77.4122C119.669 78.569 116.942 80.041 116.942 80.041C116.942 80.041 114.297 78.2538 112.95 77.0714C113.104 76.6717 113.253 76.3263 113.445 75.812C114.983 76.37 117.166 77.103 117.166 77.103L117.167 77.1045Z" fill="#2E100D"/>
<path d="M104.201 58.9838C104.692 60.0501 105.232 61.0575 105.725 62.1238C106.231 60.5794 106.802 59.0577 107.437 57.5615L107.33 62.89L104.332 64.0498L104.201 58.9838Z" fill="#E6B48A"/>
<path d="M114.642 61.2684C113.61 61.6832 112.749 62.0557 111.716 62.472C110.929 59.7708 110.399 58.0861 109.673 55.2522L108.63 62.8988L114.366 64.2924L114.641 61.2699L114.642 61.2684Z" fill="#E6B48A"/>
<path d="M130.478 59.7573C129.872 60.8356 129.344 61.7013 128.759 62.7661C128.343 61.3182 127.911 59.7799 127.353 57.9761L127.144 63.4825L130.073 64.8067L130.478 59.7588V59.7573Z" fill="#E6B48A"/>
<path d="M125.209 55.6833C124.326 58.4735 123.691 60.125 122.755 62.7779C121.747 62.3059 120.937 61.9017 119.93 61.4311L120.039 64.4867L125.844 63.4144L125.209 55.6833Z" fill="#E6B48A"/>
<path d="M130.65 85.3184C130.65 85.3184 128.278 84.4829 126.441 83.857C124.721 87.4706 122.903 90.9727 122.903 90.9727L110.113 90.4991L107.376 83.2944L102.699 85.1797L108.265 91.7193L116.781 94.3058L124.575 91.861L130.65 85.3169V85.3184Z" fill="#E6B48A"/>
<path d="M100.326 92.093L93.1548 81.3817L99.257 68.0356C95.7806 71.0445 92.5365 74.076 89.0767 76.9099C90.3013 76.9702 91.0569 76.9205 92.179 77.023C90.523 78.4 89.1837 79.4814 89.1837 79.4814C89.1837 79.4814 90.7266 85.9154 91.4445 88.5396L100.325 92.0945L100.326 92.093Z" fill="#F5DECD"/>
<path d="M91.4099 88.4525L90.0947 83.2175L95.0386 87.8402L97.218 87.445L100.326 92.0933L91.4099 88.4525Z" fill="#E6B48A"/>
<path fill-rule="evenodd" clip-rule="evenodd" d="M124.672 97.0039C120.547 97.0431 109.122 96.6525 107.78 96.6148L77.305 84.4331C78.0109 83.4814 81.7361 78.6868 81.8206 78.5948C81.1962 78.8678 77.0894 79.8315 75.8662 80.3458C75.8662 80.3458 91.4655 62.0212 92.6253 60.4436C91.5259 62.0649 80.5703 77.1258 80.1299 77.7035C80.51 77.524 85.9561 75.3341 86.0421 75.2179C85.1552 76.4713 80.1314 83.311 80.1314 83.311L108.188 94.5033C112.089 94.6119 122.844 94.9105 123.439 94.9271C123.439 94.9271 152.566 84.2671 152.605 84.2521C152.608 84.2536 152.611 84.2536 152.614 84.2521C152.614 84.2521 152.616 84.2506 152.619 84.246C152.619 84.246 149.948 78.6823 149.617 78.0383C149.614 78.1212 152.97 78.8346 152.97 78.8346C152.97 78.8346 146.245 67.4085 143.903 63.5897C146.393 67.3135 156.861 80.928 156.861 80.928C156.861 80.928 153.934 80.75 152.579 80.4227C153.079 81.3216 154.873 85.1163 154.873 85.1163C154.873 85.1163 124.702 96.9994 124.672 97.0039Z" fill="#2E100D"/>
<path d="M148.977 71.0553C150.645 69.3993 152.313 67.7448 153.981 66.0888C153.736 65.4026 153.492 64.7178 153.249 64.0316C151.492 64.932 149.734 65.8324 147.977 66.7343C149.725 64.0467 151.471 61.3123 153.219 58.6247C151.913 56.9853 149.403 53.3943 149.403 53.3943C149.403 53.3943 150.722 40.1372 150.569 40.0934C148.815 39.4585 144.744 38.0362 144.744 38.0362H144.74C139.313 40.0165 134.333 42.1521 128.907 44.1279L107.233 43.3888L89.8369 36.3139C89.8369 36.3139 85.5748 38.1011 85.5793 38.0996C85.7195 42.7931 86.4028 51.9841 86.4028 51.9841C86.4028 51.9841 83.2024 55.4997 82.3532 56.4363C83.8071 59.6835 85.2595 62.9306 86.7134 66.1763C85.0378 64.742 81.5026 62.1041 81.5026 62.1041L81.0667 65.1869C81.0667 65.1869 85.3968 70.2122 85.4601 70.1534C85.2339 70.3645 84.2656 71.1428 84.0394 71.3539C82.4045 69.0569 79.4077 65.2321 79.4077 65.2321C79.4077 65.2321 80.3217 61.1705 80.7304 59.9293C81.7997 60.7332 82.5463 61.2776 83.6141 62.0815C82.6458 59.789 81.7424 58.2492 80.6912 55.9416C81.581 55.0548 84.9443 51.5603 84.9443 51.5603L83.688 36.8704C83.688 36.8704 88.6274 35.2144 89.8384 34.6187C91.223 35.1284 107.702 41.6574 107.702 41.6574L128.329 42.5533L145.221 35.703L152.46 39.4389L151.035 52.7261C151.035 52.7261 154.935 58.3713 154.96 58.3366C153.709 60.2626 152.48 61.8613 151.23 63.7873C152.245 63.2368 153.284 63.1825 154.299 62.6335C154.652 63.9517 155.308 66.5865 155.308 66.5865C155.308 66.5865 151.916 71.0447 150.32 73.0295C150.117 72.7927 149.115 71.3343 148.964 71.0659L148.975 71.0553H148.977Z" fill="#2E100D"/>
<path d="M126.323 83.7634L125.88 82.5885L125.428 82.6459L125.422 83.3276L121.965 84.5688L117.304 83.3381L117.398 79.6189L116.442 79.5933L116.353 83.3019L111.674 84.3004L108.395 82.863L108.377 82.1451L107.899 82.0154L107.394 83.2491L111.584 85.3878L116.802 84.3622L122.004 85.6773L126.323 83.7634Z" fill="#2E100D"/>
<path d="M115.176 86.2189L115.151 86.9409L118.338 87.0516L118.363 86.3296L115.176 86.2189Z" fill="#2E100D"/>
<path fill-rule="evenodd" clip-rule="evenodd" d="M111.902 72.9113L113.381 73.6307L114.918 73.3005L113.265 67.6899L107.474 65.6433L102.415 68.4667L105.066 71.2282L105.44 73.2808L109.003 74.605L111.902 72.9113Z" fill="#F5DECD"/>
<path fill-rule="evenodd" clip-rule="evenodd" d="M125.027 75.1677L122.371 73.1648L120.406 73.6897L119.378 73.5162L121.261 67.9133L126.522 65.8862L132.258 69.4335L129.591 71.8406L128.715 74.4996L125.027 75.1677Z" fill="#F5DECD"/>
<path d="M122.572 72.4969L125.233 74.4923L128.117 73.8452L129.379 70.8892L130.468 71.3537L128.969 74.8678L124.96 75.7682L121.862 73.4441L122.572 72.4969Z" fill="#2E100D"/>
<path d="M105.259 69.2014L106.048 72.7321L108.805 73.8512L111.87 72.1288L112.45 73.1604L108.888 75.1633L105.029 73.5963L104.104 69.4593L105.259 69.2014Z" fill="#2E100D"/>
<path d="M114.776 89.309L114.75 90.031L117.937 90.1417L117.962 89.4197L114.776 89.309Z" fill="#2E100D"/>
<path d="M111.619 85.0359L113.137 88.5092L119.734 88.7717L122.099 85.3857L116.43 84.0947L111.619 85.0359Z" fill="#2E100D"/>
<path d="M114.654 86.5837L113.896 87.926L119.207 88.0422L118.624 86.6999L114.654 86.5837Z" fill="#AF372B"/>
<path d="M184.884 103.155L185.576 101.146L187.668 101.869C188.223 102.06 188.517 102.665 188.325 103.219C188.134 103.774 187.529 104.068 186.975 103.876L184.884 103.154V103.155Z" fill="#706B6B"/>
<path d="M185.037 103.051L185.73 101.042L186.39 101.27C186.945 101.462 187.239 102.067 187.048 102.62C186.856 103.175 186.251 103.469 185.698 103.278L185.037 103.05V103.051Z" fill="#5B5555"/>
<path d="M185.401 103.321C185.632 102.651 185.862 101.982 186.093 101.312L185.537 101.629C186.104 101.825 188.392 102.25 187.954 103.178C187.576 103.978 185.659 102.962 185.084 102.764C184.51 102.567 184.295 103.448 184.843 103.638C186.015 104.042 188.253 105.238 188.843 103.386C189.432 101.534 186.965 101.167 185.776 100.757C185.535 100.674 185.295 100.853 185.22 101.074C184.989 101.743 184.758 102.413 184.528 103.083C184.338 103.635 185.211 103.871 185.401 103.324V103.321Z" fill="#2E100D"/>
<path d="M174.892 104.697L180.235 106.172C181.991 106.778 183.906 105.845 184.512 104.089L185.68 100.706C186.286 98.9506 185.352 97.0351 183.597 96.4289L178.489 94.0972" fill="#706B6B"/>
<path d="M176.041 101.511L181.283 103.063C183.018 103.662 184.767 103.149 185.191 101.92L186.008 99.5507C186.432 98.32 185.371 96.8389 183.638 96.2402L178.543 94.085L176.041 101.513V101.511Z" fill="#5B5555"/>
<path d="M173.94 92.1654L165.31 89.2515C162.625 88.3255 159.653 89.882 158.671 92.7279L158.463 93.3297C157.481 96.1757 158.861 99.2328 161.546 100.159L170.177 103.163" fill="#2D2A29"/>
<path d="M173.668 92.0218L169.874 103.187C169.659 103.819 169.997 104.505 170.629 104.72L173.135 105.571C173.767 105.786 174.453 105.448 174.668 104.816L178.462 93.6509C178.677 93.0192 178.339 92.333 177.707 92.1184L175.201 91.2667C174.569 91.052 173.883 91.39 173.668 92.0218Z" fill="#706B6B"/>
<path d="M173.828 92.1577L170.947 100.636C170.732 101.267 171.07 101.954 171.702 102.168L174.208 103.02C174.84 103.235 175.526 102.897 175.74 102.265L178.622 93.7869C178.836 93.1551 178.498 92.469 177.866 92.2543L175.36 91.4026C174.729 91.1879 174.042 91.526 173.828 92.1577Z" fill="#5B5555"/>
<path d="M170.086 103.705L161.699 100.786L161.435 100.693L161.15 100.578C161.057 100.537 160.959 100.506 160.868 100.457L160.597 100.313C160.235 100.118 159.905 99.8722 159.598 99.6022C159.517 99.5389 159.449 99.462 159.378 99.3896L159.166 99.1679C159.031 99.014 158.911 98.8497 158.784 98.6898C158.675 98.5179 158.559 98.3489 158.46 98.1725L158.321 97.901C158.276 97.8105 158.226 97.7215 158.193 97.625C157.873 96.8784 157.712 96.0685 157.71 95.2586V94.9555L157.739 94.6538C157.749 94.5528 157.755 94.4517 157.771 94.3522L157.826 94.0551C157.846 93.9555 157.863 93.856 157.887 93.758L157.971 93.4669C158 93.3719 158.027 93.2708 158.057 93.1788L158.148 92.9164L158.238 92.654C158.267 92.568 158.31 92.4685 158.345 92.3765L158.458 92.0959C158.493 92.0009 158.547 91.9149 158.591 91.8245L158.73 91.556C158.775 91.4655 158.835 91.3841 158.888 91.2981L159.053 91.0432C159.11 90.9603 159.175 90.8818 159.237 90.8019C159.733 90.1639 160.357 89.6225 161.067 89.2273C161.776 88.8322 162.573 88.5788 163.39 88.523C163.799 88.4974 164.211 88.5064 164.615 88.5728C164.817 88.609 165.02 88.6361 165.215 88.701L165.509 88.7854C165.609 88.8141 165.687 88.8443 165.778 88.8729L174.19 91.7128L173.854 92.7083L165.438 89.8668C165.352 89.8397 165.259 89.8035 165.179 89.7824L164.939 89.7145C164.781 89.6602 164.618 89.6406 164.455 89.6104C164.129 89.5561 163.797 89.5516 163.467 89.5697C162.806 89.6134 162.158 89.8201 161.576 90.1443C160.992 90.4686 160.476 90.915 160.065 91.4444C160.013 91.5108 159.959 91.5741 159.911 91.6435L159.775 91.8561C159.731 91.9285 159.68 91.9949 159.642 92.0703L159.528 92.295C159.491 92.3704 159.445 92.4413 159.416 92.5212L159.322 92.7565C159.292 92.838 159.259 92.9073 159.229 92.9963L159.138 93.2588L159.048 93.5212C159.021 93.6056 159 93.6841 158.976 93.7655L158.905 94.0083C158.884 94.0898 158.872 94.1727 158.855 94.2557L158.807 94.503C158.796 94.586 158.79 94.6704 158.781 94.7534L158.757 95.0037V95.2556C158.757 95.9252 158.893 96.5949 159.155 97.2087C159.182 97.2887 159.223 97.3611 159.261 97.435L159.374 97.6582C159.455 97.803 159.552 97.9387 159.638 98.0805C159.742 98.2087 159.84 98.3444 159.948 98.4681L160.12 98.6461C160.178 98.7049 160.232 98.7682 160.298 98.818C160.546 99.0352 160.813 99.2358 161.104 99.3911L161.321 99.5087C161.393 99.548 161.473 99.5721 161.549 99.6053L161.778 99.6988L162.037 99.7908L170.424 102.711L170.079 103.703L170.086 103.705Z" fill="#310401"/>
<path d="M165.676 88.972L158.135 93.99L158.523 94.5739L166.065 89.5558L165.676 88.972Z" fill="#2E100D"/>
<path d="M167.19 90.0664L158.343 96.1765L158.741 96.7536L167.588 90.6435L167.19 90.0664Z" fill="#2E100D"/>
<path d="M169.799 90.4833L159.164 97.9797L159.568 98.5529L170.203 91.0566L169.799 90.4833Z" fill="#2E100D"/>
<path d="M172.095 91.1911L160.541 99.4297L160.948 100.001L172.502 91.7622L172.095 91.1911Z" fill="#2E100D"/>
<path d="M172.99 93.3716L162.693 100.491L163.092 101.068L173.389 93.9485L172.99 93.3716Z" fill="#2E100D"/>
<path d="M172.007 96.0578L164.848 101.29L165.262 101.856L172.42 96.624L172.007 96.0578Z" fill="#2E100D"/>
<path d="M170.811 99.5176L167.275 102.001L167.678 102.575L171.214 100.092L170.811 99.5176Z" fill="#2E100D"/>
<path d="M158.789 93.7837L158.197 94.1597L162.386 100.756L162.978 100.38L158.789 93.7837Z" fill="#2E100D"/>
<path d="M159.616 91.3872L159.013 91.7458L164.899 101.636L165.502 101.277L159.616 91.3872Z" fill="#2E100D"/>
<path d="M161.053 89.8279L160.442 90.1729L167.188 102.115L167.798 101.77L161.053 89.8279Z" fill="#2E100D"/>
<path d="M162.838 88.9918L162.228 89.3367L169.687 102.542L170.297 102.197L162.838 88.9918Z" fill="#2E100D"/>
<path d="M165.417 89.5011L164.806 89.8452L170.487 99.9345L171.098 99.5905L165.417 89.5011Z" fill="#2E100D"/>
<path d="M167.974 90L167.362 90.3425L171.322 97.4175L171.934 97.0749L167.974 90Z" fill="#2E100D"/>
<path d="M170.768 90.9295L170.155 91.2703L172.359 95.2354L172.972 94.8947L170.768 90.9295Z" fill="#2E100D"/>
<path d="M177.985 95.4772C182.175 97.2569 184.515 97.7621 185.651 99.8525C185.651 99.8525 186.208 97.2146 183.574 96.085C180.941 94.9539 178.561 94.0112 178.561 94.0112L177.986 95.4787L177.985 95.4772Z" fill="#3A3635"/>
<path d="M173.865 92.2631C175.18 92.4155 177.03 93.0836 178.32 93.9644C178.32 93.9644 179.087 92.613 177.498 92.1184C174.762 91.2662 174.392 91.2904 174.392 91.2904L173.865 92.2616V92.2631Z" fill="#3A3635"/>
<path d="M174.852 105.178C176.318 105.582 177.784 105.988 179.25 106.392C179.928 106.579 180.63 106.838 181.336 106.854C182.612 106.879 183.834 106.243 184.558 105.196C185.007 104.544 185.212 103.724 185.469 102.982C185.71 102.281 185.974 101.584 186.196 100.875C186.574 99.67 186.389 98.3639 185.618 97.3504C185.061 96.6189 184.321 96.272 183.514 95.904C181.941 95.1861 180.369 94.4697 178.796 93.7518C178.27 93.512 177.81 94.2917 178.339 94.533C179.587 95.1031 180.835 95.6717 182.083 96.2418C182.537 96.4485 182.989 96.6626 183.446 96.8632C184.707 97.4167 185.624 98.474 185.481 99.9339C185.416 100.599 185.101 101.278 184.885 101.902C184.648 102.588 184.426 103.284 184.173 103.964C183.731 105.152 182.63 105.983 181.336 105.947C180.759 105.931 180.158 105.703 179.602 105.549C178.1 105.134 176.596 104.719 175.094 104.303C174.531 104.148 174.291 105.021 174.852 105.176V105.178Z" fill="#2E100D"/>
<path d="M170.453 103.43C171.101 101.522 171.75 99.6126 172.398 97.7047L173.689 93.9025C173.873 93.3626 174.036 92.2194 174.575 91.8981C175.065 91.604 175.849 92.0369 176.336 92.2028C176.795 92.3581 177.383 92.4576 177.801 92.708C178.591 93.1831 177.915 94.3912 177.697 95.0382C176.823 97.6066 175.952 100.174 175.078 102.742C174.904 103.258 174.729 103.774 174.552 104.289C174.462 104.553 174.395 104.9 174.183 105.099C173.676 105.574 172.613 104.989 172.074 104.807C171.4 104.578 170.204 104.413 170.451 103.43C170.593 102.864 169.721 102.624 169.578 103.188C169.089 105.13 171.281 105.492 172.626 105.949C173.294 106.176 173.937 106.353 174.587 105.929C174.991 105.665 175.169 105.262 175.321 104.831C176.268 102.146 177.154 99.4391 178.069 96.744C178.386 95.8104 178.758 94.8783 179.025 93.9281C179.51 92.2118 177.888 91.7744 176.644 91.3521C176.051 91.15 175.353 90.7956 174.71 90.8906C174.021 90.9932 173.573 91.4773 173.343 92.1047C172.99 93.0594 172.686 94.0367 172.359 95.0005C171.432 97.7288 170.504 100.459 169.578 103.187C169.391 103.739 170.264 103.977 170.451 103.428L170.453 103.43Z" fill="#2E100D"/>
<path d="M203.166 111.57H192.429C191.167 111.57 190.075 112.474 189.805 113.743L184.392 138.426H200.626L205.789 114.921C206.154 113.198 204.879 111.57 203.164 111.57H203.166Z" fill="#494443"/>
<g opacity="0.75">
<path d="M203.081 111.609H192.004C190.701 111.609 190.029 112.5 189.752 113.768L184.392 138.425L200.599 138.802L205.787 114.958C206.164 113.236 204.849 111.607 203.08 111.607L203.081 111.609Z" fill="url(#paint3_linear_748_2568)"/>
</g>
<path d="M185.695 138.352L188.725 124.18L190.239 117.094L190.618 115.322L190.808 114.437L190.903 113.993L190.95 113.772L190.974 113.66L191.006 113.536C191.177 112.877 191.574 112.28 192.114 111.867C192.651 111.45 193.331 111.218 194.011 111.22V111.921C193.483 111.921 192.959 112.101 192.541 112.423C192.122 112.745 191.815 113.206 191.683 113.716L191.657 113.811L191.633 113.921L191.586 114.143L191.491 114.586L191.301 115.471L190.923 117.243L189.408 124.329L186.378 138.5L185.694 138.354L185.695 138.352Z" fill="#331513"/>
<path d="M180.572 85.1537C184.147 85.1537 187.045 82.2555 187.045 78.6805C187.045 75.1054 184.147 72.2073 180.572 72.2073C176.997 72.2073 174.098 75.1054 174.098 78.6805C174.098 82.2555 176.997 85.1537 180.572 85.1537Z" fill="#282525"/>
<path d="M180.715 80.7046C181.854 80.7046 182.778 79.7808 182.778 78.6413C182.778 77.5019 181.854 76.5781 180.715 76.5781C179.575 76.5781 178.652 77.5019 178.652 78.6413C178.652 79.7808 179.575 80.7046 180.715 80.7046Z" fill="#2E100D"/>
<path d="M174.318 99.8252C175.186 99.8252 175.89 99.1216 175.89 98.2537C175.89 97.3857 175.186 96.6821 174.318 96.6821C173.45 96.6821 172.747 97.3857 172.747 98.2537C172.747 99.1216 173.45 99.8252 174.318 99.8252Z" fill="#2E100D"/>
<path d="M223.232 102.474C226.808 102.474 229.706 99.5756 229.706 96.0005C229.706 92.4255 226.808 89.5273 223.232 89.5273C219.657 89.5273 216.759 92.4255 216.759 96.0005C216.759 99.5756 219.657 102.474 223.232 102.474Z" fill="#282525"/>
<path d="M184.455 83.4491L184.039 84.5576L216.305 96.6599L216.721 95.5513L184.455 83.4491Z" fill="#2E100D"/>
<path d="M187.544 78.4798L187.125 79.5872L218.612 91.4977L219.031 90.3904L187.544 78.4798Z" fill="#2E100D"/>
<path d="M225.075 102.168L224.958 139.268L226.142 139.272L226.259 102.172L225.075 102.168Z" fill="#2E100D"/>
<path d="M220.176 101.907L219.514 139.092L220.698 139.113L221.36 101.928L220.176 101.907Z" fill="#2E100D"/>
<path d="M231.644 139.117H214.168C212.18 139.117 210.568 140.729 210.568 142.717V143.32H235.244V142.717C235.244 140.729 233.632 139.117 231.644 139.117Z" fill="#282525"/>
<path d="M177.406 77.893C177.406 75.5718 178.557 73.5448 180.267 72.4544C180.244 72.4544 180.223 72.4529 180.2 72.4529C177.024 72.4529 174.45 75.2702 174.45 78.7451C174.45 82.22 177.024 85.0373 180.2 85.0373C181.255 85.0373 182.241 84.7251 183.09 84.1837C179.946 84.1445 177.406 81.3437 177.406 77.8945V77.893Z" fill="#494443"/>
<path d="M220.12 95.1032C220.12 92.7458 221.29 90.6871 223.031 89.5801C223.008 89.5801 222.985 89.5786 222.963 89.5786C219.731 89.5786 217.111 92.4397 217.111 95.9674C217.111 99.495 219.731 102.356 222.963 102.356C224.035 102.356 225.039 102.039 225.904 101.49C222.703 101.451 220.12 98.6067 220.12 95.1032Z" fill="#494443"/>
<path d="M214.764 139.233H232.239C233.291 139.233 234.235 139.682 234.894 140.4H218.559C216.762 140.4 215.274 141.715 215.002 143.436H211.162V142.833C211.162 140.845 212.775 139.233 214.762 139.233H214.764Z" fill="#3D3939"/>
<path d="M202.131 138.621H181.6C180.369 138.621 179.373 139.618 179.373 140.848V142.444C179.373 142.654 179.543 142.824 179.753 142.824H203.982C204.192 142.824 204.362 142.654 204.362 142.444V140.848C204.362 139.618 203.365 138.621 202.134 138.621H202.131Z" fill="#3F3B3B"/>
<path d="M202.131 138.621H189.307C188.076 138.621 187.079 139.618 187.079 140.848V142.444C187.079 142.654 187.25 142.824 187.459 142.824H203.982C204.191 142.824 204.362 142.654 204.362 142.444V140.848C204.362 139.618 203.365 138.621 202.134 138.621H202.131Z" fill="#282525"/>
<path d="M231.799 138.59C232.395 138.59 232.993 138.723 233.535 138.976C234.076 139.228 234.562 139.599 234.948 140.053C235.337 140.506 235.618 141.052 235.775 141.628C235.814 141.773 235.85 141.917 235.868 142.065L235.901 142.287L235.913 142.51L235.919 142.622L235.922 142.678C235.922 142.697 235.924 142.709 235.924 142.745V143.843H210.197V142.715L210.2 142.662L210.205 142.557C210.211 142.415 210.215 142.273 210.242 142.135C210.262 141.994 210.283 141.854 210.324 141.718C210.459 141.168 210.713 140.648 211.058 140.2C211.404 139.752 211.841 139.375 212.337 139.1C212.833 138.824 213.388 138.66 213.952 138.608C214.091 138.601 214.242 138.592 214.37 138.59H231.799V139.642H214.37C214.251 139.643 214.155 139.652 214.046 139.655C213.203 139.723 212.402 140.168 211.889 140.841C211.631 141.175 211.444 141.561 211.342 141.972C211.31 142.073 211.296 142.177 211.281 142.282C211.26 142.386 211.259 142.492 211.253 142.598L211.248 142.678L211.245 142.717V142.795H234.871V142.72L234.862 142.564L234.855 142.397L234.829 142.233C234.817 142.121 234.788 142.014 234.76 141.907C234.642 141.479 234.437 141.071 234.144 140.735C233.567 140.053 232.692 139.64 231.797 139.643V138.592L231.799 138.59Z" fill="#310401"/>
<path d="M189.132 138.319C188.181 138.33 187.274 138.871 186.859 139.74C186.562 140.363 186.603 141.016 186.603 141.685V142.446C186.603 142.833 187.206 142.835 187.206 142.446C187.206 141.913 187.2 141.382 187.206 140.85C187.217 139.79 188.073 138.936 189.132 138.924C189.52 138.919 189.521 138.316 189.132 138.321V138.319Z" fill="#331513"/>
<path d="M196.924 119.435L194.073 119.381C193.507 119.37 193.138 118.875 193.265 118.302L194.001 114.977C194.117 114.45 194.613 114.048 195.132 114.057L197.982 114.111C198.548 114.122 198.917 114.616 198.791 115.189L198.055 118.515C197.939 119.041 197.442 119.444 196.924 119.435Z" fill="#2E100D"/>
<path d="M196.884 119.284C196.384 119.275 195.884 119.264 195.384 119.255C195.059 119.249 194.735 119.243 194.411 119.237C194.231 119.234 194.029 119.252 193.854 119.204C193.455 119.097 193.296 118.696 193.376 118.316C193.416 118.132 193.458 117.949 193.498 117.765C193.648 117.089 193.797 116.415 193.946 115.74C194.07 115.185 194.121 114.525 194.729 114.275C194.937 114.189 195.151 114.207 195.37 114.212L196.313 114.23C196.853 114.24 197.394 114.239 197.933 114.262C198.397 114.281 198.691 114.67 198.611 115.124C198.587 115.263 198.551 115.402 198.519 115.539C198.375 116.195 198.228 116.851 198.083 117.509C198.025 117.773 197.967 118.035 197.908 118.299C197.853 118.554 197.783 118.788 197.59 118.982C197.397 119.177 197.153 119.282 196.884 119.285C196.69 119.285 196.69 119.589 196.884 119.587C197.432 119.582 197.925 119.222 198.115 118.711C198.178 118.542 198.206 118.355 198.245 118.18L198.717 116.05C198.835 115.518 199.094 114.856 198.738 114.364C198.359 113.841 197.601 113.954 197.034 113.943C196.4 113.931 195.767 113.915 195.135 113.907C194.713 113.901 194.322 114.091 194.064 114.426C193.897 114.642 193.832 114.883 193.774 115.141C193.624 115.82 193.474 116.497 193.324 117.175C193.257 117.473 193.192 117.77 193.126 118.068C193.072 118.314 193.022 118.557 193.09 118.809C193.209 119.248 193.598 119.515 194.043 119.533C194.254 119.542 194.467 119.54 194.678 119.545C195.363 119.558 196.049 119.57 196.734 119.584C196.785 119.584 196.835 119.585 196.886 119.587C197.08 119.59 197.08 119.288 196.886 119.285L196.884 119.284Z" fill="#2E100D"/>
<path d="M196.319 116.642C196.876 116.144 196.998 115.371 196.592 114.917C196.185 114.462 195.404 114.497 194.847 114.995C194.29 115.494 194.168 116.266 194.575 116.72C194.981 117.175 195.762 117.14 196.319 116.642Z" fill="#3A3535"/>
<path d="M196.057 116.303C196.384 116.011 196.455 115.558 196.216 115.291C195.978 115.024 195.519 115.044 195.193 115.336C194.866 115.628 194.795 116.081 195.034 116.348C195.272 116.615 195.731 116.595 196.057 116.303Z" fill="#2E100D"/>
<path d="M197.245 118.502C197.61 118.175 197.69 117.669 197.424 117.371C197.157 117.073 196.645 117.096 196.28 117.423C195.915 117.749 195.835 118.255 196.101 118.553C196.368 118.851 196.88 118.828 197.245 118.502Z" fill="#3A3535"/>
<path d="M196.66 115.793C196.549 116.26 196.186 116.658 195.729 116.812C195.331 116.946 194.838 116.884 194.605 116.497C194.372 116.106 194.513 115.602 194.785 115.271C195.073 114.919 195.553 114.667 196.016 114.755C196.513 114.848 196.759 115.316 196.66 115.794C196.62 115.984 196.91 116.064 196.951 115.874C197.061 115.346 196.868 114.781 196.353 114.548C195.803 114.299 195.159 114.502 194.731 114.892C194.302 115.283 194.05 115.904 194.255 116.455C194.453 116.987 194.994 117.242 195.539 117.165C196.212 117.071 196.795 116.53 196.951 115.872C196.996 115.684 196.705 115.603 196.66 115.793Z" fill="#2E100D"/>
<path d="M197.417 117.928C197.349 118.216 197.126 118.465 196.844 118.56C196.604 118.641 196.305 118.608 196.166 118.378C196.028 118.147 196.114 117.839 196.276 117.637C196.451 117.42 196.747 117.261 197.032 117.313C197.317 117.364 197.477 117.642 197.418 117.93C197.379 118.12 197.669 118.2 197.709 118.01C197.786 117.643 197.652 117.246 197.295 117.082C196.911 116.907 196.467 117.043 196.168 117.316C195.869 117.589 195.703 118.013 195.842 118.39C195.981 118.764 196.356 118.946 196.741 118.893C197.201 118.83 197.602 118.46 197.709 118.01C197.755 117.821 197.463 117.74 197.418 117.93L197.417 117.928Z" fill="#2E100D"/>
<path d="M197.852 115.926C198.009 115.792 198.047 115.58 197.938 115.452C197.828 115.324 197.613 115.329 197.456 115.463C197.3 115.596 197.262 115.808 197.371 115.936C197.481 116.064 197.696 116.059 197.852 115.926Z" fill="#3A3535"/>
<path d="M194.906 118.286C195.025 118.184 195.054 118.022 194.97 117.925C194.887 117.827 194.723 117.831 194.604 117.932C194.485 118.034 194.456 118.196 194.539 118.293C194.622 118.391 194.787 118.387 194.906 118.286Z" fill="#3A3535"/>
<path d="M183.591 78.6804C183.593 77.8871 183.27 77.1044 182.707 76.5448C182.148 75.9823 181.365 75.658 180.572 75.661C179.778 75.6595 178.996 75.9823 178.436 76.5448C177.874 77.1044 177.549 77.8871 177.552 78.6804C177.551 79.4738 177.874 80.2565 178.436 80.8161C178.996 81.3786 179.778 81.7029 180.572 81.6999C181.365 81.7014 182.148 81.3786 182.707 80.8161C183.27 80.2565 183.594 79.4738 183.591 78.6804H184.293C184.296 79.6547 183.894 80.6245 183.204 81.3108C182.517 82.003 181.548 82.4042 180.573 82.3997C179.599 82.4027 178.629 82.0015 177.943 81.3108C177.251 80.6245 176.85 79.6547 176.854 78.6804C176.851 77.7062 177.252 76.7364 177.943 76.0501C178.629 75.3579 179.599 74.9567 180.573 74.9612C181.548 74.9582 182.517 75.3594 183.204 76.0501C183.896 76.7364 184.297 77.7062 184.293 78.6804H183.591Z" fill="#2E100D"/>
<path d="M186.518 78.6804C186.517 77.9007 186.363 77.124 186.066 76.4046C185.769 75.6851 185.327 75.0261 184.776 74.4756C184.224 73.9251 183.565 73.4847 182.847 73.1861C182.13 72.8874 181.351 72.7351 180.572 72.7336C179.792 72.7351 179.015 72.8889 178.296 73.1861C177.576 73.4832 176.917 73.9251 176.367 74.4756C175.816 75.0276 175.376 75.6866 175.077 76.4046C174.779 77.124 174.626 77.9007 174.625 78.6804C174.626 79.4602 174.78 80.2369 175.077 80.9563C175.374 81.6757 175.816 82.3348 176.367 82.8853C176.919 83.4358 177.578 83.8762 178.296 84.1748C179.014 84.4734 179.792 84.6258 180.572 84.6273C181.351 84.6258 182.128 84.4719 182.847 84.1748C183.567 83.8777 184.226 83.4358 184.776 82.8853C185.327 82.3333 185.767 81.6742 186.066 80.9563C186.365 80.2369 186.517 79.4602 186.518 78.6804H187.57C187.57 79.5959 187.389 80.5129 187.037 81.359C186.687 82.2066 186.168 82.9818 185.52 83.6288C184.871 84.2759 184.096 84.7947 183.25 85.1461C182.404 85.4975 181.487 85.6785 180.572 85.6785C179.656 85.6785 178.739 85.4975 177.893 85.1461C177.045 84.7962 176.27 84.2774 175.623 83.6288C174.976 82.9803 174.457 82.2051 174.106 81.359C173.754 80.5129 173.573 79.5959 173.573 78.6804C173.573 77.765 173.754 76.8495 174.106 76.0019C174.456 75.1543 174.975 74.379 175.623 73.732C176.272 73.085 177.047 72.5662 177.893 72.2148C178.739 71.8634 179.656 71.6824 180.572 71.6824C181.487 71.6824 182.403 71.8634 183.25 72.2148C184.096 72.5647 184.873 73.0835 185.52 73.732C186.167 74.3805 186.686 75.1558 187.037 76.0019C187.389 76.848 187.57 77.765 187.57 78.6804H186.518Z" fill="#310401"/>
<path d="M229.181 96.0002C229.179 95.2205 229.026 94.4438 228.729 93.7244C228.431 93.005 227.99 92.3459 227.439 91.7954C226.887 91.2449 226.228 90.8045 225.51 90.5059C224.791 90.2072 224.014 90.0549 223.234 90.0534C222.454 90.0549 221.678 90.2088 220.958 90.5059C220.239 90.803 219.58 91.2449 219.029 91.7954C218.479 92.3474 218.038 93.0065 217.74 93.7244C217.441 94.4438 217.289 95.2205 217.287 96.0002C217.289 96.78 217.443 97.5567 217.74 98.2761C218.037 98.9955 218.479 99.6546 219.029 100.205C219.581 100.756 220.24 101.196 220.958 101.495C221.678 101.793 222.454 101.946 223.234 101.947C224.014 101.946 224.791 101.792 225.51 101.495C226.229 101.198 226.889 100.756 227.439 100.205C227.99 99.6531 228.43 98.994 228.729 98.2761C229.027 97.5567 229.179 96.78 229.181 96.0002H230.232C230.232 96.9157 230.051 97.8312 229.7 98.6788C229.35 99.5264 228.831 100.302 228.183 100.949C227.534 101.596 226.759 102.114 225.913 102.466C225.067 102.817 224.15 102.998 223.234 102.998C222.319 102.998 221.403 102.817 220.556 102.466C219.709 102.116 218.933 101.597 218.286 100.949C217.639 100.3 217.12 99.5249 216.768 98.6788C216.417 97.8327 216.236 96.9157 216.236 96.0002C216.236 95.0848 216.417 94.1693 216.768 93.3217C217.118 92.4741 217.637 91.6989 218.286 91.0518C218.934 90.4048 219.709 89.886 220.556 89.5346C221.402 89.1832 222.319 89.0022 223.234 89.0022C224.15 89.0022 225.067 89.1832 225.913 89.5346C226.76 89.8845 227.536 90.4033 228.183 91.0518C228.83 91.7004 229.348 92.4756 229.7 93.3217C230.051 94.1678 230.232 95.0848 230.232 96.0002H229.181Z" fill="#310401"/>
<path d="M226.253 96.0005C226.255 95.2072 225.932 94.4244 225.369 93.8649C224.81 93.3023 224.027 92.9781 223.234 92.9811C222.441 92.9796 221.658 93.3023 221.098 93.8649C220.536 94.4244 220.211 95.2072 220.214 96.0005C220.213 96.7938 220.536 97.5766 221.098 98.1361C221.658 98.6987 222.441 99.0229 223.234 99.0199C224.027 99.0214 224.81 98.6987 225.369 98.1361C225.932 97.5766 226.256 96.7938 226.253 96.0005H226.955C226.958 96.9748 226.556 97.9446 225.866 98.6308C225.179 99.3231 224.21 99.7243 223.235 99.7197C222.261 99.7228 221.291 99.3216 220.605 98.6308C219.913 97.9446 219.512 96.9748 219.516 96.0005C219.513 95.0262 219.914 94.0564 220.605 93.3702C221.291 92.6779 222.261 92.2768 223.235 92.2813C224.21 92.2783 225.179 92.6794 225.866 93.3702C226.558 94.0564 226.959 95.0262 226.955 96.0005H226.253Z" fill="#2E100D"/>
<path d="M180.193 77.8827L173.848 98.0044L174.978 98.3604L181.322 78.2387L180.193 77.8827Z" fill="#2E100D"/>
<path d="M203.166 111.193H192.985C192.524 111.193 192.067 111.178 191.618 111.304C190.515 111.617 189.689 112.543 189.441 113.651C189.405 113.814 189.37 113.977 189.334 114.14C189.124 115.093 188.916 116.046 188.707 116.999C188.375 118.515 188.042 120.029 187.71 121.545C187.318 123.331 186.927 125.115 186.535 126.901C186.158 128.622 185.779 130.344 185.402 132.065C185.104 133.43 184.803 134.795 184.505 136.158C184.354 136.849 184.202 137.539 184.051 138.23C184.045 138.26 184.037 138.292 184.031 138.322C183.98 138.559 184.14 138.799 184.395 138.799H198.634C199.287 138.799 199.949 138.828 200.602 138.799C200.611 138.799 200.62 138.799 200.629 138.799C200.787 138.799 200.958 138.683 200.993 138.521C201.048 138.266 201.104 138.012 201.16 137.758C201.311 137.069 201.463 136.38 201.614 135.692C201.833 134.695 202.053 133.697 202.271 132.7C202.532 131.51 202.795 130.32 203.056 129.13C203.335 127.86 203.614 126.59 203.893 125.32C204.16 124.101 204.428 122.883 204.695 121.664C204.927 120.61 205.158 119.554 205.39 118.5C205.561 117.725 205.731 116.95 205.902 116.174C205.983 115.805 206.065 115.435 206.145 115.066C206.448 113.668 205.825 112.149 204.51 111.506C204.089 111.301 203.636 111.194 203.167 111.19C202.698 111.185 202.682 111.939 203.167 111.944C204.653 111.959 205.727 113.393 205.425 114.829C205.36 115.135 205.291 115.44 205.225 115.744C205.068 116.459 204.911 117.174 204.754 117.889C204.534 118.894 204.314 119.897 204.092 120.901C203.831 122.089 203.57 123.276 203.309 124.465C203.035 125.717 202.759 126.97 202.484 128.222C202.222 129.418 201.959 130.614 201.695 131.811C201.468 132.849 201.24 133.885 201.012 134.923C200.846 135.677 200.68 136.431 200.516 137.185C200.436 137.547 200.333 137.911 200.276 138.276C200.273 138.291 200.269 138.307 200.266 138.322L200.629 138.045H185.055C184.847 138.045 184.63 138.027 184.422 138.045C184.413 138.045 184.404 138.045 184.395 138.045C184.515 138.203 184.638 138.363 184.758 138.521C184.862 138.046 184.966 137.57 185.072 137.095C185.337 135.883 185.603 134.671 185.868 133.46C186.232 131.802 186.595 130.145 186.959 128.487C187.349 126.709 187.738 124.931 188.129 123.154C188.483 121.539 188.838 119.922 189.192 118.307C189.44 117.179 189.687 116.049 189.934 114.921C190.081 114.254 190.17 113.499 190.563 112.927C191.019 112.265 191.761 111.944 192.547 111.944H203.169C203.654 111.944 203.654 111.19 203.169 111.19L203.166 111.193Z" fill="#2E100D"/>
<path d="M202.287 138.094C203.009 138.091 203.731 138.39 204.238 138.906C204.751 139.414 205.047 140.141 205.041 140.859V142.379C205.041 142.415 205.041 142.453 205.039 142.488C205.031 142.631 204.994 142.767 204.924 142.889C204.789 143.132 204.537 143.304 204.258 143.341C204.187 143.35 204.114 143.35 204.041 143.35H179.95C179.659 143.36 179.386 143.237 179.21 143.02C179.122 142.913 179.059 142.785 179.027 142.649C179.01 142.581 179.004 142.51 179.003 142.437V140.942C179.003 140.904 179.003 140.873 179.003 140.829L179.009 140.693C179.01 140.603 179.021 140.514 179.038 140.425C179.092 140.067 179.22 139.72 179.409 139.413C179.784 138.796 180.41 138.337 181.117 138.171C181.292 138.129 181.473 138.103 181.653 138.099C181.749 138.093 181.819 138.094 181.891 138.094H202.287V139.146H181.891C181.817 139.146 181.74 139.146 181.692 139.15C181.58 139.153 181.469 139.168 181.36 139.195C180.926 139.296 180.537 139.58 180.305 139.963C180.188 140.153 180.11 140.366 180.075 140.586C180.065 140.64 180.057 140.696 180.057 140.752L180.053 140.836C180.051 140.865 180.053 140.907 180.053 140.942V142.299H203.989V140.859C203.991 140.405 203.811 139.968 203.493 139.648C203.176 139.328 202.736 139.146 202.287 139.146V138.094Z" fill="#2E100D"/>
<path d="M248.243 143.655H18.2886V150.949H248.243V143.655Z" fill="#282525"/>
<path d="M248.671 143.655H95.5933V150.949H248.671V143.655Z" fill="#353131"/>
<path d="M249.372 143.126H17.4786L17.3232 151.65L249.665 152L249.372 143.126ZM19.1105 150.356V144.246H247.88V150.356H19.1105Z" fill="#2E100D"/>
<path d="M119.636 38.262C132.05 38.0298 142.918 42.4925 147.926 52.9248C149.258 52.7513 150.697 52.056 150.697 52.056C150.697 52.056 146.952 41.9179 137.111 37.3933C129.546 33.9154 119.423 34.8429 119.423 34.8429L119.636 38.262Z" fill="#C23C27"/>
<path d="M144.296 45.2975C142.277 43.3896 140.814 42.545 138.624 41.1529C135.265 39.0203 129.51 38.1139 130.793 35.5666C130.161 35.0191 129.792 35.2438 129.086 35.1367C128.973 36.0778 128.795 38.3296 128.795 38.9841C132.567 39.9961 134.704 40.3325 137.995 42.177C142.302 44.5916 144.786 47.9278 145.99 48.9292C147.156 48.6638 147.946 48.6019 148.8 48.2581C148.575 47.5749 146.39 44.8118 145.97 44.4061C146.973 45.6534 145.726 46.6473 144.296 45.296V45.2975Z" fill="#A03328"/>
<path d="M145.521 49.59C143.536 46.9084 140.984 44.6627 138.104 42.9796C135.223 41.2889 132.035 40.1442 128.76 39.4504L128.905 38.7642C132.241 39.47 135.502 40.6389 138.458 42.3748C141.414 44.1017 144.041 46.4138 146.083 49.1707L145.521 49.5885V49.59Z" fill="#2E100D"/>
<path d="M142.209 40.693C142.524 40.9871 144.136 42.0489 143.34 42.7185C142.684 43.272 141.342 41.895 140.402 41.3219C138.088 39.9102 136.381 39.0807 133.912 38.0371C133.49 37.8591 131.054 37.2196 131.852 36.1955C132.223 35.719 133.309 36.1593 133.757 36.2725C136.141 36.8712 140.388 38.9887 142.209 40.693Z" fill="#D6493A"/>
<path d="M129.187 34.8325C131.215 35.1492 133.23 35.6168 135.173 36.3181C135.657 36.4961 136.138 36.6846 136.613 36.8912C137.09 37.0963 137.548 37.3331 138.01 37.5639C138.244 37.674 138.465 37.8082 138.69 37.9334C138.913 38.0631 139.143 38.1837 139.361 38.3195C139.796 38.597 140.242 38.8609 140.66 39.1641C142.363 40.3344 143.907 41.7205 145.301 43.2377C146.688 44.761 147.923 46.4185 148.999 48.1726L148.401 48.5375C146.294 45.1094 143.574 42.0236 140.262 39.7402C139.856 39.4446 139.423 39.1897 139.001 38.9197C138.788 38.787 138.565 38.6709 138.348 38.5457C138.129 38.4235 137.913 38.2938 137.687 38.1868C137.239 37.962 136.793 37.7313 136.333 37.5337C135.874 37.3331 135.407 37.1506 134.935 36.9772C133.045 36.294 131.074 35.8355 129.08 35.5248L129.187 34.8325Z" fill="#2E100D"/>
<path d="M138.916 47.8117L138.117 48.3499C136.476 49.4547 136.041 51.6807 137.146 53.3217L147.738 69.0554C148.843 70.6964 151.069 71.1311 152.71 70.0263L153.51 69.4881C155.151 68.3833 155.585 66.1574 154.481 64.5163L143.888 48.7826C142.783 47.1416 140.557 46.7069 138.916 47.8117Z" fill="#2D2929"/>
<path d="M81.311 69.013L82.095 69.5445C83.7326 70.6544 85.9599 70.2267 87.0698 68.5892L97.6847 52.9287C98.7946 51.2912 98.3669 49.0639 96.7294 47.9539L95.9454 47.4225C94.3078 46.3126 92.0805 46.7403 90.9706 48.3778L80.3557 64.0382C79.2458 65.6758 79.6735 67.9031 81.311 69.013Z" fill="#2D2929"/>
<path d="M138.91 47.6918L138.111 48.23C136.47 49.3348 136.035 51.5608 137.14 53.2018L143.235 62.2547C144.34 63.8957 146.566 64.3304 148.207 63.2256L149.006 62.6874C150.647 61.5826 151.082 59.3567 149.977 57.7156L143.882 48.6627C142.777 47.0217 140.551 46.587 138.91 47.6918Z" fill="#3A3635"/>
<path d="M87.0218 60.4494L87.2053 60.5738C88.838 61.6805 91.0588 61.2541 92.1654 59.6213L97.0726 52.3816C98.1793 50.7489 97.7529 48.5282 96.1201 47.4215L95.9366 47.2971C94.3039 46.1904 92.0832 46.6169 90.9765 48.2496L86.0693 55.4893C84.9626 57.122 85.3891 59.3427 87.0218 60.4494Z" fill="#3A3635"/>
<path d="M153.222 69.1213C153.675 68.8031 154.059 68.3793 154.285 67.8695C154.523 67.3688 154.608 66.7987 154.552 66.2482C154.522 65.9722 154.449 65.7037 154.351 65.4443C154.326 65.3795 154.292 65.3191 154.264 65.2558C154.235 65.1925 154.206 65.1291 154.167 65.0718L154.06 64.8938C154.021 64.8305 153.971 64.7596 153.927 64.6932L152.838 63.0765L148.484 56.6108L144.13 50.1451L143.586 49.3367L143.45 49.1361L143.325 48.9702C143.304 48.9431 143.284 48.9144 143.261 48.8873L143.19 48.8119C143.144 48.7621 143.098 48.7093 143.049 48.6596C142.845 48.4725 142.626 48.3006 142.381 48.1694C142.135 48.0427 141.878 47.9311 141.605 47.8768L141.504 47.8512L141.402 47.8361C141.332 47.827 141.265 47.8135 141.195 47.8074C141.056 47.8029 140.918 47.7878 140.78 47.8014C140.503 47.8074 140.23 47.8647 139.966 47.9492L139.77 48.0186C139.707 48.0457 139.645 48.0774 139.581 48.106C139.452 48.1573 139.34 48.2433 139.219 48.3097L138.412 48.8526C137.959 49.1708 137.575 49.5946 137.349 50.1044C137.111 50.6051 137.026 51.1752 137.082 51.7257C137.112 52.0017 137.185 52.2702 137.283 52.5296C137.308 52.5945 137.342 52.6548 137.37 52.7181C137.399 52.7815 137.428 52.8448 137.467 52.9021L137.574 53.0801C137.613 53.1434 137.663 53.2143 137.707 53.2807L138.796 54.8975L143.15 61.3631L147.504 67.8288L148.048 68.6372L148.184 68.8378L148.309 69.0037C148.33 69.0308 148.35 69.0595 148.373 69.0866L148.444 69.162C148.49 69.2118 148.536 69.2646 148.585 69.3144C148.789 69.5014 149.008 69.6733 149.253 69.8045C149.499 69.9312 149.756 70.0428 150.029 70.0971L150.13 70.1228L150.232 70.1378C150.302 70.1469 150.37 70.1605 150.439 70.1665C150.578 70.171 150.716 70.1861 150.854 70.1725C151.131 70.1665 151.404 70.1092 151.668 70.0247L151.864 69.9554C151.927 69.9282 151.989 69.8965 152.053 69.8679C152.182 69.8166 152.294 69.7306 152.415 69.6643L153.222 69.1213L153.808 69.9931L152.998 70.5375C152.837 70.631 152.686 70.7396 152.513 70.812C152.428 70.8512 152.345 70.8935 152.259 70.9297L151.995 71.0232C151.641 71.1378 151.271 71.2117 150.899 71.2222C150.713 71.2373 150.526 71.2222 150.341 71.2117C150.249 71.2026 150.157 71.186 150.065 71.174L149.928 71.1529L149.792 71.1197C149.427 71.0428 149.08 70.898 148.751 70.726C148.422 70.5496 148.125 70.3203 147.852 70.0655C147.786 69.9991 147.726 69.9297 147.661 69.8618L147.567 69.7593C147.537 69.7231 147.51 69.6854 147.483 69.6492L147.315 69.426L147.178 69.2224L146.634 68.414L142.28 61.9483L137.925 55.4827L136.836 53.8659C136.791 53.7965 136.746 53.7347 136.699 53.6608L136.554 53.4225C136.503 53.344 136.464 53.2596 136.425 53.1751C136.385 53.0907 136.343 53.0077 136.309 52.9217C136.174 52.5733 136.078 52.2114 136.037 51.8404C135.96 51.0998 136.076 50.3382 136.395 49.664C136.699 48.9823 137.213 48.4047 137.824 47.9824L138.634 47.4379C138.796 47.3444 138.946 47.2358 139.12 47.1634C139.204 47.1242 139.287 47.082 139.373 47.0458L139.637 46.9523C139.992 46.8377 140.361 46.7637 140.734 46.7532C140.919 46.7381 141.106 46.7532 141.292 46.7638C141.384 46.7728 141.476 46.7894 141.568 46.8015L141.705 46.8226L141.841 46.8557C142.206 46.9327 142.553 47.0775 142.881 47.2494C143.21 47.4258 143.507 47.6551 143.78 47.91C143.847 47.9763 143.907 48.0457 143.972 48.1136L144.065 48.2161C144.095 48.2523 144.123 48.29 144.15 48.3262L144.317 48.5495L144.454 48.7531L144.999 49.5615L149.353 56.0271L153.707 62.4928L154.796 64.1096C154.841 64.1789 154.887 64.2408 154.933 64.3147L155.078 64.553C155.129 64.6314 155.169 64.7159 155.208 64.8003C155.247 64.8848 155.289 64.9677 155.324 65.0537C155.458 65.4021 155.555 65.7641 155.595 66.1351C155.672 66.8756 155.556 67.6373 155.238 68.3114C154.933 68.9931 154.419 69.5708 153.808 69.9931L153.222 69.1213Z" fill="#310401"/>
<path d="M80.8627 69.2798C80.2549 68.8575 79.7421 68.2784 79.4405 67.5982C79.1238 66.9255 79.0092 66.1639 79.0861 65.4264C79.1283 65.0568 79.2218 64.6934 79.3575 64.348C79.3892 64.2605 79.4345 64.1791 79.4737 64.0946C79.5144 64.0102 79.5521 63.9257 79.6019 63.8473L79.7467 63.609C79.7949 63.5321 79.8387 63.4717 79.8839 63.4023L80.9743 61.7931L85.3391 55.3531L89.7038 48.9131L90.2498 48.1077L90.387 47.9056L90.5544 47.6824L90.6389 47.5723L90.7339 47.4697C90.7972 47.4018 90.8591 47.3325 90.9255 47.2661C91.4639 46.7533 92.1365 46.3793 92.8635 46.2179L92.9992 46.1862C93.0445 46.1772 93.0912 46.1727 93.1365 46.1651C93.2285 46.1531 93.3205 46.138 93.4125 46.1274C93.598 46.1199 93.7835 46.1018 93.969 46.1184C94.3415 46.1289 94.7095 46.2043 95.0624 46.3174L95.3249 46.4125C95.4108 46.4471 95.4938 46.4894 95.5782 46.5286C95.7502 46.6025 95.9025 46.7096 96.0624 46.8031L96.8708 47.3491C97.4786 47.7713 97.9914 48.3505 98.293 49.0307C98.6097 49.7034 98.7244 50.465 98.6474 51.2025C98.6052 51.572 98.5117 51.9355 98.376 52.2809C98.3443 52.3683 98.299 52.4498 98.2598 52.5342C98.2191 52.6187 98.1814 52.7032 98.1316 52.7816L97.9868 53.0199C97.9386 53.0968 97.8948 53.1571 97.8496 53.2265L96.7592 54.8358L92.3944 61.2758L88.0297 67.7158L87.4837 68.5212L87.3465 68.7233L87.1791 68.9465L87.0946 69.0566L86.9996 69.1592C86.9363 69.227 86.8744 69.2964 86.8081 69.3628C86.2696 69.8755 85.597 70.2496 84.87 70.411L84.7343 70.4426C84.689 70.4517 84.6423 70.4562 84.597 70.4637C84.505 70.4758 84.413 70.4909 84.321 70.5015C84.1355 70.509 83.95 70.5271 83.7645 70.5105C83.392 70.4999 83.024 70.4245 82.6711 70.3114L82.4086 70.2164C82.3227 70.1817 82.2397 70.1395 82.1553 70.1003C81.9833 70.0264 81.831 69.9193 81.6711 69.8258L80.8627 69.2798L81.4524 68.4096L82.2548 68.9525C82.3754 69.0204 82.4871 69.1049 82.6168 69.1561C82.6801 69.1848 82.7404 69.218 82.8053 69.2436L82.9998 69.313C83.2623 69.3959 83.5353 69.4548 83.8128 69.4608C83.9515 69.4744 84.0888 69.4578 84.2275 69.4548L84.4326 69.4261L84.5352 69.411L84.6362 69.3854C85.1792 69.2662 85.6769 68.9857 86.0781 68.6071L86.2199 68.4548L86.2907 68.3794L86.3541 68.2965L86.4793 68.1306L86.615 67.93L87.161 67.1246L91.5257 60.6846L95.8904 54.2445L96.9809 52.6353C97.0246 52.5689 97.0759 52.4981 97.1136 52.4377L97.2207 52.2598C97.2599 52.2024 97.287 52.1376 97.3172 52.0758C97.3459 52.0124 97.3805 51.9521 97.4032 51.8872C97.5027 51.6293 97.5721 51.3609 97.6053 51.0864C97.6611 50.5374 97.5781 49.9688 97.3413 49.4681C97.1181 48.9598 96.7365 48.536 96.2841 48.2163L95.4817 47.6733C95.3611 47.6054 95.2495 47.521 95.1198 47.4697C95.0564 47.4411 94.9961 47.4079 94.9312 47.3822L94.7367 47.3129C94.4742 47.2299 94.2013 47.1711 93.9237 47.1651C93.785 47.1515 93.6477 47.1681 93.509 47.1711L93.3039 47.1997L93.2013 47.2148L93.1003 47.2405C92.5573 47.3596 92.0596 47.6401 91.6584 48.0187L91.5167 48.171L91.4458 48.2464L91.3824 48.3294L91.2572 48.4953L91.1215 48.6959L90.5755 49.5013L86.2108 55.9413L81.8461 62.3813L80.7556 63.9905C80.7119 64.0569 80.6606 64.1278 80.6229 64.1881L80.5158 64.3661C80.4766 64.4234 80.4495 64.4883 80.4193 64.5501C80.3907 64.6134 80.356 64.6738 80.3333 64.7386C80.2338 64.9965 80.1644 65.265 80.1313 65.5395C80.0754 66.0885 80.1584 66.657 80.3952 67.1578C80.6184 67.666 81 68.0898 81.4524 68.4096L80.8627 69.2798Z" fill="#310401"/>
<path d="M117.774 38.078C104.974 37.8578 93.7667 42.0883 88.6026 51.9776C87.2287 51.8132 85.7461 51.1541 85.7461 51.1541C85.7461 51.1541 89.6071 41.5423 99.7543 37.2545C107.555 33.9576 117.993 34.8369 117.993 34.8369L117.773 38.078H117.774Z" fill="#C23C27"/>
<path d="M155.348 63.8034L156.938 61.1233C157.631 59.9545 157.574 58.4885 156.794 57.3755L150.897 48.9763C150.099 47.8391 148.697 47.2901 147.339 47.5842L144.815 48.1302C143.837 48.3413 143.379 49.471 143.932 50.3035L152.944 63.8637C153.523 64.7355 154.814 64.7023 155.348 63.8019V63.8034Z" fill="#C23C27"/>
<path d="M79.4796 63.3447L77.902 60.6662C77.2143 59.4973 77.2746 58.0343 78.0574 56.9258L83.968 48.5598C84.7689 47.4272 86.1685 46.8842 87.5228 47.1813L90.0415 47.7333C91.0173 47.9475 91.4713 49.0756 90.9163 49.9051L81.8807 63.4126C81.3 64.2813 80.012 64.2436 79.4811 63.3432L79.4796 63.3447Z" fill="#C23C27"/>
<path d="M156.779 57.1357L154.991 54.5884C155.12 55.4149 154.97 56.2791 154.525 57.0287L152.84 59.8701C152.398 60.6152 151.468 60.7976 150.789 60.4025L152.93 63.624C153.51 64.4958 154.801 64.4626 155.335 63.5622L156.924 60.8821C157.618 59.7132 157.561 58.2473 156.781 57.1342L156.779 57.1357Z" fill="#A03328"/>
<path d="M81.6076 61.1039L79.8173 58.0648C79.2985 57.1841 79.1567 56.157 79.3784 55.1978L78.2141 56.8447C77.4313 57.9517 77.371 59.4162 78.0588 60.585L79.6363 63.2636C80.1657 64.164 81.4552 64.2002 82.0359 63.333L82.9996 61.8927C82.4582 61.8957 81.9167 61.6317 81.6045 61.1039H81.6076Z" fill="#A03328"/>
<path d="M152.169 57.3167L153.03 55.8643C153.405 55.2309 153.375 54.4361 152.951 53.8328L149.754 49.278C149.321 48.6612 148.561 48.364 147.825 48.5239L146.455 48.8195C145.925 48.9341 145.677 49.5465 145.977 49.9974L150.864 57.3499C151.178 57.822 151.877 57.8039 152.167 57.3167H152.169Z" fill="#D6493A"/>
<path d="M82.0334 57.6937L81.1194 56.1418C80.7213 55.4646 80.756 54.6185 81.2084 53.976L84.6305 49.1317C85.0935 48.4756 85.905 48.1619 86.6892 48.3338L88.1477 48.6536C88.7117 48.7772 88.9757 49.4303 88.6544 49.9114L83.4225 57.7314C83.0861 58.2337 82.3396 58.2126 82.0334 57.6922V57.6937Z" fill="#D6493A"/>
<path d="M155.811 64.0447C156.625 62.6722 157.895 61.1278 157.942 59.4718C157.986 57.9033 156.963 56.742 156.117 55.5384C155.033 53.994 153.948 52.4481 152.862 50.9037C152.166 49.9113 151.479 48.6113 150.498 47.8647C148.829 46.5948 146.707 47.2101 144.858 47.6882C143.892 47.9386 143.192 48.753 143.337 49.7922C143.394 50.2115 143.605 50.5342 143.831 50.8736C145.659 53.6245 147.489 56.3755 149.317 59.1264C150.274 60.5683 151.234 62.0101 152.191 63.452C152.369 63.7204 152.537 64.0085 152.742 64.2588C153.597 65.298 155.083 65.108 155.811 64.0447C156.141 63.5636 155.357 63.1096 155.03 63.5877C154.092 64.9571 153.17 63.2921 152.692 62.5742C151.921 61.4129 151.149 60.2531 150.378 59.0917C148.623 56.4494 146.866 53.807 145.11 51.1646C144.637 50.4513 143.521 49.1497 144.881 48.6233C145.487 48.388 146.201 48.3232 146.834 48.1859C147.855 47.9657 148.825 47.8481 149.766 48.4499C150.707 49.0516 151.292 50.2341 151.897 51.0953C152.871 52.4828 153.844 53.8703 154.819 55.2579C155.506 56.2382 156.6 57.3845 156.93 58.5669C157.429 60.3496 155.889 62.1413 155.03 63.5877C154.733 64.0899 155.514 64.5454 155.811 64.0447Z" fill="#2E100D"/>
<path d="M92.3464 44.7488C94.4277 42.9405 95.9359 42.1396 98.1952 40.8199C101.658 38.7974 107.594 37.9393 106.27 35.5246C106.922 35.0058 107.303 35.2185 108.03 35.1174C108.146 36.0103 108.33 38.1429 108.33 38.7643C104.441 39.7235 102.237 40.0417 98.8437 41.7897C94.4021 44.0792 91.8411 47.2404 90.5999 48.1905C89.3979 47.9386 88.5819 47.8798 87.7026 47.5541C87.9349 46.907 90.1882 44.2873 90.6195 43.9027C89.5849 45.0851 90.8714 46.0263 92.3464 44.7458V44.7488Z" fill="#A03328"/>
<path d="M90.521 48.397C92.6943 45.7034 95.4574 43.512 98.4994 41.8937C101.544 40.2678 104.853 39.1925 108.224 38.5349L108.357 39.2227C105.044 39.8697 101.801 40.9254 98.8282 42.512C95.8586 44.0911 93.1755 46.2222 91.064 48.8374L90.5195 48.397H90.521Z" fill="#2E100D"/>
<path d="M79.941 63.1339C79.6152 62.5804 79.2895 62.0269 78.9622 61.4734C78.558 60.7872 78.0738 60.1115 77.9743 59.3031C77.7963 57.8763 78.7767 56.804 79.5413 55.7226C81.1596 53.4332 82.7146 51.0804 84.4023 48.8422C85.1337 47.8709 86.277 47.4094 87.479 47.6356C88.1305 47.7578 88.776 47.9207 89.4231 48.0625C89.6523 48.1122 89.8997 48.1424 90.1183 48.2299C90.7699 48.4893 90.9056 49.1212 90.5919 49.7004C90.4909 49.8859 90.3521 50.0593 90.2345 50.2343C88.5996 52.6791 86.9632 55.1239 85.3283 57.5686C84.3781 58.9879 83.428 60.4086 82.4793 61.8278C81.9937 62.5533 80.9455 64.6044 79.9425 63.1324C79.6167 62.6543 78.8325 63.1053 79.1613 63.5894C79.7842 64.5049 81.0194 64.8397 81.9318 64.1037C82.2109 63.879 82.3933 63.5834 82.5894 63.2893C83.351 62.1506 84.1112 61.0134 84.8728 59.8747C86.841 56.9322 88.8092 53.9912 90.7759 51.0487C91.4079 50.103 92.1589 49.0488 91.251 47.9493C90.696 47.2782 89.77 47.2118 88.9736 47.0369C88.1109 46.8484 87.2392 46.5829 86.3478 46.7021C84.6013 46.9343 83.7417 48.2133 82.8202 49.5179C81.7418 51.0427 80.6649 52.569 79.5866 54.0938C78.7556 55.2701 77.4434 56.6456 77.1342 58.098C76.6984 60.1416 78.1855 61.9319 79.1613 63.5879C79.4569 64.0886 80.2396 63.6346 79.9425 63.1309L79.941 63.1339Z" fill="#2E100D"/>
<path d="M108.112 34.701L108.269 38.1232C108.334 39.5469 109.488 40.6795 110.912 40.7218L126.601 41.1757C127.987 41.2165 129.182 40.209 129.378 38.8365L129.843 35.5773C130.07 33.9771 128.864 32.5307 127.248 32.4704L110.937 31.8536C109.343 31.7932 108.038 33.1084 108.112 34.701Z" fill="#3A3635"/>
<path d="M127.339 38.9332L110.437 38.4581C109.544 38.4325 108.752 38.0358 108.23 37.4265L108.27 38.2786C108.335 39.7024 109.488 40.835 110.912 40.8773L126.602 41.3312C127.988 41.372 129.182 40.3645 129.378 38.992L129.501 38.1308C128.947 38.6497 128.175 38.9573 127.338 38.9347L127.339 38.9332Z" fill="#2D2929"/>
<path d="M107.763 34.7948C107.754 34.4675 107.788 34.1387 107.874 33.8205C107.966 33.5053 108.108 33.2052 108.289 32.9322C108.658 32.3922 109.2 31.9639 109.824 31.7528C109.978 31.6924 110.14 31.6623 110.299 31.6261C110.462 31.6065 110.625 31.5793 110.79 31.5838C110.962 31.5778 111.096 31.5884 111.244 31.5929L111.679 31.6095L113.423 31.6758L120.4 31.9398L123.888 32.071L125.632 32.1374L126.504 32.1705L126.939 32.1871L127.158 32.1947L127.268 32.1992L127.39 32.2098C127.718 32.2294 128.04 32.3153 128.342 32.442C128.647 32.5657 128.927 32.7467 129.172 32.9639C129.419 33.1795 129.633 33.4344 129.796 33.7195C129.959 34.003 130.089 34.3092 130.152 34.6334C130.215 34.9547 130.244 35.288 130.199 35.6123C130.193 35.6982 130.182 35.7676 130.171 35.84L130.141 36.0557L130.079 36.487L129.834 38.2154L129.772 38.6468L129.742 38.8624L129.727 38.971L129.704 39.0917C129.644 39.4129 129.537 39.7281 129.375 40.0162C129.055 40.5908 128.552 41.0569 127.953 41.3314C127.654 41.4686 127.332 41.5531 127.006 41.5862L126.884 41.5998L126.76 41.6028C126.68 41.6028 126.591 41.6074 126.523 41.6028L126.087 41.5908L124.342 41.541L117.364 41.3389L113.874 41.2378L112.129 41.1881L111.257 41.1624L111.038 41.1564C110.966 41.1549 110.895 41.1534 110.811 41.1458C110.729 41.1383 110.646 41.1368 110.566 41.1232L110.324 41.081C109.683 40.9347 109.091 40.5833 108.663 40.0856C108.238 39.5864 107.968 38.9514 107.927 38.2953L107.763 34.8008L108.462 34.7692L108.625 38.2471C108.655 38.7553 108.865 39.2425 109.192 39.6301C109.524 40.0162 109.981 40.2862 110.474 40.3993L110.661 40.4325C110.723 40.443 110.788 40.443 110.851 40.4506C110.91 40.4566 110.986 40.4581 111.06 40.4611L111.278 40.4672L112.15 40.4928L113.895 40.5426L117.385 40.6436L124.363 40.8457L126.108 40.8955L126.544 40.9075C126.621 40.9106 126.678 40.9075 126.743 40.9075H126.838L126.933 40.8955C127.185 40.8683 127.434 40.805 127.663 40.6994C128.125 40.4883 128.515 40.1263 128.761 39.6844C128.885 39.4627 128.968 39.2199 129.015 38.971L129.033 38.8775L129.048 38.7704L129.078 38.5548L129.14 38.1234L129.386 36.395L129.448 35.9637L129.478 35.748C129.488 35.6756 129.499 35.6017 129.503 35.5414C129.54 35.2895 129.514 35.0331 129.467 34.7858C129.42 34.5369 129.318 34.3001 129.193 34.0814C129.067 33.8612 128.902 33.6637 128.71 33.4978C128.52 33.3303 128.304 33.1901 128.071 33.0951C127.837 32.9985 127.589 32.9307 127.336 32.9171L120.374 32.6486L113.397 32.3847L111.654 32.3183L111.218 32.3018C111.075 32.2972 110.919 32.2867 110.8 32.2927C110.672 32.2882 110.548 32.3108 110.422 32.3244C110.299 32.3545 110.173 32.3757 110.055 32.4239C109.574 32.5853 109.156 32.9171 108.87 33.3349C108.729 33.546 108.621 33.7768 108.548 34.0196C108.484 34.2654 108.456 34.5173 108.462 34.7722L107.763 34.8039V34.7948Z" fill="#2E100D"/>
<path d="M126.465 33.5021L111.573 32.9482C110.384 32.904 109.385 33.8314 109.341 35.0196C109.297 36.2079 110.224 37.2069 111.413 37.2512L126.305 37.805C127.494 37.8492 128.493 36.9218 128.538 35.7336C128.582 34.5454 127.654 33.5463 126.465 33.5021Z" fill="#4F4847"/>
<path d="M139.769 49.8785L139.635 49.9572C138.512 50.6166 138.137 52.0611 138.796 53.1837L140.441 55.9836C141.1 57.1061 142.545 57.4816 143.667 56.8222L143.801 56.7435C144.924 56.0841 145.299 54.6396 144.64 53.517L142.995 50.7171C142.336 49.5946 140.891 49.2191 139.769 49.8785Z" fill="#4F4847"/>
<path d="M95.4451 49.3718L95.3217 49.2931C94.2242 48.5928 92.7668 48.9149 92.0665 50.0124L90.3191 52.7511C89.6188 53.8486 89.9408 55.306 91.0384 56.0063L91.1617 56.085C92.2592 56.7853 93.7166 56.4633 94.4169 55.3657L96.1643 52.627C96.8646 51.5295 96.5426 50.0721 95.4451 49.3718Z" fill="#4F4847"/>
<path d="M94.4983 40.3841C94.174 40.6631 92.5105 41.6691 93.3309 42.304C94.0081 42.8289 95.3911 41.5243 96.3594 40.9798C98.7454 39.6421 100.505 38.8563 103.051 37.8669C103.487 37.698 105.998 37.0917 105.175 36.1204C104.792 35.6695 103.673 36.0872 103.211 36.1928C100.753 36.7599 96.373 38.7673 94.4968 40.3826L94.4983 40.3841Z" fill="#D6493A"/>
<path d="M108.03 35.5022C106.024 35.7902 104.035 36.2125 102.116 36.8384C101.636 36.9953 101.161 37.1642 100.694 37.3497C100.459 37.4387 100.228 37.5397 99.9955 37.6363L99.3093 37.953L98.9655 38.1114C98.8523 38.1656 98.7407 38.226 98.6291 38.2833L97.958 38.6317C97.7363 38.7508 97.5206 38.882 97.3019 39.0072C97.0832 39.1339 96.8645 39.2576 96.6549 39.3963L96.0184 39.8036C95.8088 39.9438 95.6052 40.0916 95.397 40.2349L95.0879 40.4521L94.7862 40.6813L94.186 41.1413C93.4017 41.7763 92.6491 42.4489 91.9297 43.1578C90.5059 44.5891 89.2149 46.1561 88.0974 47.8408L87.5137 47.4532C88.6569 45.7323 89.9766 44.1276 91.435 42.6631C92.1725 41.9377 92.9432 41.2469 93.7486 40.5969L94.3639 40.1233L94.6731 39.888L94.9913 39.6648C95.204 39.517 95.4136 39.3647 95.6293 39.2214L96.2839 38.8021C96.4995 38.6588 96.7258 38.5306 96.949 38.4009C97.1737 38.2727 97.3954 38.1385 97.6231 38.0148L98.3124 37.6559C98.427 37.5971 98.5416 37.5337 98.6578 37.4794L99.0107 37.3165L99.7165 36.9908C99.9563 36.8912 100.193 36.7872 100.436 36.6952C100.917 36.5036 101.406 36.3317 101.897 36.1703C103.866 35.5278 105.891 35.098 107.93 34.8069L108.03 35.5007V35.5022Z" fill="#2E100D"/>
<defs>
<linearGradient id="paint0_linear_748_2568" x1="128.346" y1="0.673314" x2="128.346" y2="147.296" gradientUnits="userSpaceOnUse">
<stop stop-color="#1A90CB"/>
<stop offset="0.1" stop-color="#218BC9"/>
<stop offset="0.24" stop-color="#357DC6"/>
<stop offset="0.42" stop-color="#5767C1"/>
<stop offset="0.61" stop-color="#8549BA"/>
<stop offset="0.83" stop-color="#C022B1"/>
<stop offset="1" stop-color="#F500AA"/>
</linearGradient>
<linearGradient id="paint1_linear_748_2568" x1="126.033" y1="102.356" x2="123.081" y2="143.944" gradientUnits="userSpaceOnUse">
<stop stop-color="#8B8D90" stop-opacity="0.8"/>
<stop offset="1"/>
</linearGradient>
<radialGradient id="paint2_radial_748_2568" cx="0" cy="0" r="1" gradientUnits="userSpaceOnUse" gradientTransform="translate(160.023 122.303) scale(15.8632 15.8633)">
<stop offset="0.04" stop-color="white" stop-opacity="0.8"/>
<stop offset="1" stop-color="#808080"/>
</radialGradient>
<linearGradient id="paint3_linear_748_2568" x1="195.123" y1="111.609" x2="195.123" y2="138.803" gradientUnits="userSpaceOnUse">
<stop stop-color="#58595B" stop-opacity="0.8"/>
<stop offset="1" stop-color="#231F20"/>
</linearGradient>
</defs>
</svg>
